<?xml version="1.0" encoding="utf-8"?>
<!-- Generator: Adobe Illustrator 26.0.0, SVG Export Plug-In . SVG Version: 6.00 Build 0)  -->
<svg version="1.1" id="Layer_3" xmlns="http://www.w3.org/2000/svg" xmlns:xlink="http://www.w3.org/1999/xlink" x="0px" y="0px"
	 viewBox="0 0 6668.8 2762.5" style="enable-background:new 0 0 6668.8 2762.5;" xml:space="preserve">
<style type="text/css">
	.st0{fill:#172842;}
</style>
<g>
	<g>
		<g>
			<g>
				<path class="st0" d="M630.6,1342.7c-23.9,2.4-48.7,4.8-72.5,10c-1.8,0.4-3.5,0.8-4.4,1.9c-0.7,0.8-0.7,1.8-0.6,2.5
					c0.2,1.5,1.2,3.1,2.5,3.9c2.5,1.7,5.9,1.8,9.5,1.9c38.1,0.4,76.5-3.3,114-10.8l-36-10.7L630.6,1342.7z"/>
				<path class="st0" d="M571.1,1365.4c-2.1,0-4.1,0-6.2,0c-3.9,0-7.7-0.2-10.8-2.3c-1.9-1.2-3.2-3.4-3.5-5.6
					c-0.2-1.7,0.2-3.3,1.2-4.5c1.4-1.6,3.5-2.2,5.7-2.7c23.9-5.2,48.7-7.7,72.6-10.1l0.4,2.4l-0.2-2.4l12.5-1.2c0.3,0,0.6,0,0.9,0.1
					l36,10.7c1.1,0.3,1.8,1.3,1.7,2.5c-0.1,1.1-0.9,2.1-2,2.3C643.3,1361.8,606.9,1365.4,571.1,1365.4z M642.8,1343.9l-12,1.2l0,0
					l-0.2,0c-23.8,2.4-48.4,4.8-72,10c-0.8,0.2-2.6,0.6-3.1,1.1c0,0-0.1,0.6-0.1,0.6c0.1,0.8,0.7,1.7,1.4,2.2
					c1.9,1.3,4.9,1.4,8.1,1.4c34.1,0.5,69-2.6,103.7-8.9L642.8,1343.9z"/>
			</g>
			<g>
				<g>
					<path class="st0" d="M1722.7,1282.7c6.5,1.1,14.5,2.5,21.9,7.4c5.5,3.6,9.3,8.2,12.4,11.9c26.5,32,53.6,68.7,72.4,94.8
						l522-205.4l-166.7-220l-519.1,299.8C1685.4,1275.8,1705,1279.6,1722.7,1282.7z"/>
					<path class="st0" d="M1829.3,1399.2c-0.8,0-1.5-0.4-2-1c-18.3-25.5-45.7-62.6-72.2-94.7c-3-3.6-6.7-8.1-11.8-11.4
						c-7-4.5-14.7-5.9-20.9-7l-0.1,0c-21.2-3.7-39.9-7.5-57.2-11.6c-1-0.2-1.7-1-1.9-2c-0.2-1,0.3-2,1.2-2.5l519.1-299.8
						c1-0.6,2.4-0.4,3.2,0.6l166.7,220c0.5,0.6,0.6,1.4,0.4,2.1c-0.2,0.7-0.7,1.3-1.4,1.6l-522,205.4
						C1829.9,1399.1,1829.6,1399.2,1829.3,1399.2z M1723.1,1280.3c6.7,1.2,15,2.6,22.8,7.7c5.8,3.8,9.7,8.6,12.9,12.4
						c26.1,31.6,53,67.9,71.4,93.4l517.2-203.6L2184,974.5l-511.9,295.7C1687.7,1273.7,1704.4,1277,1723.1,1280.3l-0.5,2.4
						L1723.1,1280.3z"/>
				</g>
				<g>
					<path class="st0" d="M2898.3,1913.2l-145.8-192.4l1.5,17.3l-636,53.9c6.3,1.2,12.8,2.4,19.6,3.5c26.4,4.6,53.9,11.2,76.6,27.8
						c20.1,14.6,34.9,48.6,31.4,89.9H2898.3z"/>
					<path class="st0" d="M2898.3,1915.7h-652.8c-0.7,0-1.3-0.3-1.8-0.8c-0.5-0.5-0.7-1.2-0.6-1.9c3.6-42.6-12.7-74.8-30.4-87.7
						c-22.3-16.3-49.5-22.8-75.6-27.3c-6.8-1.2-13.3-2.4-19.6-3.5c-1.2-0.2-2.1-1.3-2-2.5c0.1-1.2,1-2.2,2.2-2.3l633.6-53.7
						l-1.3-14.9c-0.1-1.1,0.5-2.1,1.6-2.5c1-0.4,2.2-0.1,2.8,0.8l145.8,192.4c0.6,0.7,0.7,1.7,0.2,2.6
						C2900.1,1915.1,2899.2,1915.7,2898.3,1915.7z M2248.1,1910.8h645.3L2755.6,1729l0.8,8.9c0.1,0.6-0.2,1.3-0.6,1.8
						c-0.4,0.5-1,0.8-1.7,0.9l-617.7,52.4c0.5,0.1,1,0.2,1.5,0.3c26.7,4.7,54.5,11.3,77.6,28.2
						C2238,1837.8,2250.6,1872.7,2248.1,1910.8z"/>
				</g>
				<g>
					<path class="st0" d="M1490.4,832.4c19.5,8.7,42.3,7.1,66.5,5.4c17.3-1.2,35.2-2.5,53.1,0c27.1,3.7,49.8,7.2,74,14.9l10.1,3.2
						c21.9,7,44.3,14.1,66.4,18.8l214-181L1778.3,435l-315.1,379C1472.1,821.5,1480.9,828.2,1490.4,832.4z"/>
					<path class="st0" d="M1760.4,877.2c-0.2,0-0.3,0-0.5-0.1c-22.9-4.9-46.2-12.3-66.7-18.9l-10.1-3.2c-24-7.6-46.5-11.1-73.6-14.8
						c-17.7-2.5-35.4-1.2-52.6,0c-24.7,1.7-47.7,3.3-67.6-5.6l0,0c-10-4.5-19.2-11.6-27.8-18.8c-1-0.9-1.2-2.4-0.3-3.4l315.1-379
						c0.5-0.6,1.3-1,1.9-0.9c0.7,0,1.4,0.4,1.9,1l196.1,258.8c0.8,1,0.6,2.5-0.4,3.3l-213.9,181C1761.6,877,1761,877.2,1760.4,877.2
						z M1587.4,834c7.6,0,15.2,0.4,22.9,1.4c27.3,3.8,50,7.3,74.4,15l10.1,3.2c20.1,6.4,42.7,13.6,65,18.5L1971,693.4l-192.8-254.5
						l-311.6,374.8c7.7,6.4,16,12.6,24.7,16.5c0,0,0,0,0,0c18.8,8.5,41.2,6.9,64.9,5.3C1566.6,834.7,1576.9,834,1587.4,834z"/>
				</g>
				<g>
					<path class="st0" d="M1802.3,887.7c8.9,9.1,10.2,22.1,4,38.8c-13.1,35.1-33.5,68.2-59,95.6c-6.7,7.2-14.2,14.3-24.2,18.4
						c-17.9,7.3-36.7,2.2-50.5-1.6c-21.1-5.8-41.5-10.5-59.2-5.2c-13.4,4-25.1,14.6-30.6,27.5c-3.6,8.5-4.6,18.4-2.8,27.8
						c0.9,4.8,4,9.2,8.4,12c4.4,2.8,9.7,3.7,14.4,2.5c4.3-1.1,8.5-2.8,12.7-4.4c8.8-3.4,18.7-7.2,29.9-7.5c10.8-0.3,19.8,2.9,26,9.2
						c4.7,4.8,7.8,11.3,9.1,19.3c3.4,20.7-5,43.4-22.4,60.7c-14,13.9-31.1,22.7-48.9,31.2l-2.3,1.1c-12.2,5.8-23.8,11.4-33.8,18.6
						c14.2,14.7,35.2,22.8,52.6,28.4l541-312.5l-174.7-230.6L1796,883C1798.2,884.2,1800.3,885.7,1802.3,887.7z"/>
					<path class="st0" d="M1625.8,1262.7c-0.2,0-0.5,0-0.7-0.1c-17.2-5.5-38.9-13.8-53.6-29.1c-0.5-0.5-0.7-1.2-0.7-1.9
						c0.1-0.7,0.4-1.3,1-1.8c10.2-7.3,21.9-12.9,34.2-18.8l2.3-1.1c17.6-8.4,34.5-17.1,48.2-30.8c16.8-16.8,25-38.7,21.7-58.6
						c-1.2-7.6-4.1-13.6-8.4-18c-5.7-5.8-14.2-8.9-24.2-8.5c-10.8,0.3-20.5,4.1-29.1,7.4l-0.8,0.3c-3.9,1.5-8,3.1-12.2,4.2
						c-5.4,1.4-11.4,0.4-16.3-2.8c-5-3.2-8.5-8.1-9.5-13.6c-1.9-9.9-0.8-20.2,2.9-29.2c5.7-13.6,18-24.7,32.1-28.9
						c18.3-5.5,39.1-0.7,60.6,5.2c13.4,3.7,31.8,8.6,48.9,1.7c9.6-3.9,16.9-10.9,23.4-17.9c25.3-27.2,45.5-59.9,58.5-94.8
						c5.8-15.7,4.7-27.9-3.5-36.2c-1.6-1.6-3.4-3-5.7-4.3c-0.7-0.4-1.2-1.1-1.2-1.9c-0.1-0.8,0.2-1.6,0.9-2.1l196.1-165.8
						c0.5-0.4,1.1-0.7,1.8-0.6c0.7,0.1,1.3,0.4,1.7,0.9l174.7,230.6c0.4,0.6,0.6,1.3,0.4,2c-0.1,0.7-0.6,1.3-1.2,1.6l-541,312.5
						C1626.6,1262.6,1626.2,1262.7,1625.8,1262.7z M1577,1232.2c13.6,12.9,32.8,20.3,48.5,25.4L2163.2,947l-171.5-226.3l-191.6,162
						c1.4,1,2.7,2.1,3.9,3.3l0,0c9.6,9.8,11.1,23.7,4.6,41.3c-13.2,35.4-33.7,68.8-59.5,96.4c-6.9,7.4-14.7,14.8-25.1,19
						c-18.6,7.6-37.9,2.4-52-1.4c-20.8-5.7-40.8-10.4-57.9-5.2c-12.8,3.8-23.9,13.9-29,26.1c-3.4,8.1-4.3,17.5-2.6,26.4
						c0.8,4.2,3.5,8,7.3,10.4c3.9,2.5,8.4,3.3,12.5,2.2c3.9-1,7.9-2.5,11.7-4l0.8-0.3c8.9-3.4,19.1-7.3,30.7-7.7
						c11.5-0.2,21.1,3.1,27.8,9.9c5.1,5.1,8.4,12.1,9.8,20.7c3.5,21.4-5.2,44.9-23.1,62.8c-14.3,14.2-31.6,23.1-49.6,31.7l-2.3,1.1
						C1596.8,1220.8,1586.2,1225.9,1577,1232.2z"/>
				</g>
				<g>
					<path class="st0" d="M1857.2,1465.8l-3.8,144.2l692.1-162.4l-175.8-232.1l-523.6,206.1
						C1853.7,1435.1,1857.6,1450.1,1857.2,1465.8z"/>
					<path class="st0" d="M1853.5,1612.5c-0.6,0-1.1-0.2-1.5-0.6c-0.6-0.5-0.9-1.2-0.9-1.9l3.7-144.2l0,0c0.4-15-3.2-29.4-10.8-42.9
						c-0.4-0.6-0.4-1.3-0.2-2c0.2-0.7,0.7-1.2,1.4-1.4l523.6-206.1c1-0.4,2.2-0.1,2.8,0.8l175.8,232.1c0.5,0.6,0.6,1.5,0.4,2.3
						c-0.3,0.8-0.9,1.4-1.7,1.6L1854,1612.4C1853.9,1612.5,1853.7,1612.5,1853.5,1612.5z M1859.7,1465.9l-3.7,141.1l685.3-160.8
						l-172.5-227.6l-519.3,204.4C1856.7,1436.5,1860.1,1450.9,1859.7,1465.9L1859.7,1465.9z"/>
				</g>
				<g>
					<path class="st0" d="M1668.2,1808.7c-0.5-0.2-1.3-0.5-2-0.7c-0.7,0.6-1.6,1.5-2.2,2.1c-31.1,30.2-74.7,32.8-116.7,32.9
						l-214,0.6c-3,0-7.6,0-9,0.9c-1.7,1-3.8,6-5.3,9.5l-1.1,2.7c-7.3,16.8-27.5,38-49.1,56.4h628c-24.2-11.2-49-23.1-73.6-34.9
						C1765.4,1850.6,1710.8,1824.5,1668.2,1808.7z"/>
					<path class="st0" d="M1896.8,1915.7h-628c-1,0-1.9-0.6-2.3-1.6c-0.4-1-0.1-2,0.7-2.7c24.9-21.3,42.1-41,48.4-55.5l1.1-2.7
						c2.3-5.5,4.1-9.4,6.3-10.7c1.7-1,4.9-1.2,10.3-1.2l213.9-0.6c41.6-0.1,84.7-2.7,115-32.2c0.7-0.6,1.6-1.5,2.3-2.2
						c0.6-0.6,1.5-0.8,2.4-0.5l2,0.7c0,0,0,0,0.1,0c42.8,15.8,97.4,42,155.3,69.7c26.4,12.6,50.1,24,73.5,34.9
						c1,0.5,1.6,1.6,1.4,2.7C1899,1914.9,1898,1915.7,1896.8,1915.7z M1275.3,1910.8h610.4c-20.2-9.5-40.9-19.4-63.6-30.2
						c-57.7-27.7-112.3-53.8-154.8-69.5l-0.5-0.2c-0.4,0.4-0.8,0.7-1.1,1.1c-31.7,30.8-75.9,33.5-118.4,33.6l-214,0.6
						c-1.7,0-6.7,0-7.8,0.6c-1.1,0.8-3.3,6-4.2,8.3l-1.2,2.8C1312.1,1876.2,1290.4,1897.5,1275.3,1910.8z"/>
				</g>
				<g>
					<path class="st0" d="M1616.9,1799.8c-10.2-3.1-22.3-1.5-35.1,0.1c-6.7,0.8-13.3,1.7-19.9,2c-7.8,0.3-15.7,0-23.6-0.5
						c-7-0.4-14-0.8-21-0.4c-9.4,0.5-24.3,5.9-39.9,13l69.9-0.2c28.3-0.1,55.5-1.2,76.8-11
						C1621.6,1801.5,1619.3,1800.5,1616.9,1799.8z"/>
					<path class="st0" d="M1477.3,1816.4c-1.1,0-2.1-0.8-2.4-1.9c-0.2-1.1,0.3-2.3,1.4-2.7c18.4-8.3,32.1-12.8,40.8-13.2
						c6.6-0.3,13.4,0,19.9,0.3l1.4,0.1c8.3,0.4,15.8,0.8,23.3,0.5c6.5-0.3,13.2-1.1,19.7-2c13.1-1.7,25.4-3.3,36.1,0l0,0
						c2.4,0.7,4.9,1.8,7.5,3.1c0.8,0.4,1.3,1.3,1.3,2.2c0,0.9-0.6,1.8-1.4,2.1c-22.1,10.3-50.6,11.2-77.8,11.3L1477.3,1816.4
						L1477.3,1816.4z M1522.9,1803.3c-1.9,0-3.7,0-5.5,0.1c-6.2,0.3-15.8,3.1-28.2,8.1l58-0.2c24.6-0.1,50.2-0.8,70.7-8.7
						c-0.6-0.2-1.1-0.4-1.6-0.5l0,0c-9.7-2.9-21.6-1.4-34.1,0.2c-6.6,0.8-13.4,1.7-20.1,2c-7.8,0.3-15.4,0-23.8-0.5l-1.4-0.1
						C1532.2,1803.5,1527.5,1803.3,1522.9,1803.3z"/>
				</g>
				<g>
					<path class="st0" d="M1440.6,795.4L1760.1,411l-106.6-140.7l-1.2-1.6l-380.9,542.1c53.2-21.6,97.7-37.6,119.6-36.5
						C1410.7,775.4,1426.3,784.4,1440.6,795.4z"/>
					<path class="st0" d="M1271.5,813.3c-0.7,0-1.4-0.3-1.9-0.9c-0.7-0.8-0.7-2-0.1-2.9l380.9-542.1c0.4-0.6,1.2-1,2-1c0,0,0,0,0,0
						c0.8,0,1.5,0.4,1.9,1l107.8,142.3c0.7,0.9,0.7,2.2-0.1,3l-319.5,384.4c-0.9,1-2.3,1.2-3.4,0.4c-12.4-9.5-27.9-19.4-48.1-20.6
						c-0.6,0-1.3,0-2,0c-23.6,0-72,18.3-116.6,36.4C1272.1,813.2,1271.8,813.3,1271.5,813.3z M1652.4,272.8l-374.2,532.6
						c44.6-17.9,87.7-33.7,110.8-33.7c0.8,0,1.5,0,2.2,0c20.6,1.1,36.3,10.6,49,20.1L1757,410.9L1652.4,272.8z"/>
				</g>
				<g>
					<path class="st0" d="M1848.4,1645c-0.4,1-0.6,1.9-0.8,2.6c42.1,45.2,99.7,86.2,154.9,110.4c10.4,4.6,20.3,8.5,30.1,12
						l711.4-60.3l-179-236.3l-715.5,167.9C1849,1642.4,1848.9,1643.7,1848.4,1645z"/>
					<path class="st0" d="M2032.6,1772.3c-0.3,0-0.6-0.1-0.8-0.1c-10.1-3.6-20-7.6-30.2-12c-55.2-24.1-113.4-65.6-155.7-110.9
						c-0.6-0.6-0.8-1.5-0.6-2.3c0.2-0.8,0.5-1.7,0.8-2.7c0,0,0,0,0,0c0.2-0.6,0.4-1.3,0.5-2c0.1-0.6,0.3-1.2,0.4-1.8
						c0.2-0.8,0.9-1.5,1.8-1.7l715.5-167.9c0.9-0.2,1.9,0.1,2.5,0.9l179,236.3c0.5,0.7,0.6,1.6,0.3,2.5c-0.4,0.8-1.1,1.4-2,1.4
						l-711.4,60.3C2032.7,1772.3,2032.7,1772.3,2032.6,1772.3z M1850.4,1646.9c41.7,44.4,98.9,85.1,153.1,108.8
						c9.9,4.3,19.6,8.2,29.4,11.7l706.4-59.9L2563.9,1476l-712.5,167.2c0,0,0,0.1,0,0.1c-0.2,0.8-0.4,1.6-0.7,2.4l0,0
						C1850.6,1646.2,1850.5,1646.5,1850.4,1646.9z"/>
				</g>
				<g>
					<path class="st0" d="M2196.8,1847c-17.9-13-41.5-18.5-64.4-22.6c-40.7-7.1-71.5-13.8-103.7-24.8l-17.9,1.5l-0.7-8.4
						c-6.3-2.5-12.7-5.1-19.3-8c-60.2-26.3-123-71.5-167.9-120.9c-8.6-9.4-3.9-23.1-2.2-28.3c2.1-6.1,3.2-12.1,3.3-17.7l4-152.8
						c0.3-12.4-3.3-24.3-10.4-34.3c-17.2-24.4-50.9-71-83.2-110.1c-2-2.4-4.1-4.9-5.8-6.1c-2.4-1.5-6.7-2.3-11-3
						c-30.3-5.3-65.9-12.2-100.3-23.2c-23.7-7.6-53.3-19.4-72-43.9c-6.7-8.8-6-16.3-4.1-21c1.7-4.6,4.9-7.4,6.3-8.6
						c14.3-12.5,30.9-20.4,46.9-28l2.3-1.1c16-7.6,30.1-14.9,40.8-25.5c10.6-10.5,16-24.1,14.2-35.3c-0.4-2.6-1-3.5-1-3.5
						c-0.1-0.1-1.5-0.5-4.2-0.5c-6.2,0.2-13.1,2.8-20.3,5.6c-5.2,2-10.4,4-15.7,5.4c-12.6,3.3-26.3,1.1-37.6-6
						c-11.3-7.2-19.2-18.6-21.6-31.4c-2.8-15-1.2-30.8,4.6-44.5c8.8-21.1,27.2-37.7,49.1-44.3c25.1-7.5,51-1.7,75.4,5
						c13,3.6,23.6,6,31.7,2.7c5-2.1,9.8-6.9,13.9-11.3c22.9-24.6,41.2-54.3,53-85.8c2.5-6.6,1.9-9,1.9-9c0,0.7-3.4,0.3-4.7,0.1
						c-30.9-4.3-61.4-14-91-23.4l-10-3.2c-22-7-42.6-10.1-69.1-13.8c-14.9-2-30.5-1-47.1,0.2c-26.7,1.9-54.3,3.8-80.5-7.9
						c-15.7-7-28.5-18-41-28.6c-16.5-14-30.7-26.1-47.9-27c-21.5-1.3-92.5,28.3-134.9,45.9c-5.2,2.1-9.9,4.1-14.5,6l-101.3,144.1
						c-18.6-19.4-240.9-250.3-343.2-358.3c-3.5-3.7-7.9-8.3-13.6-9.8c-5-1.2-10.2-0.1-15,1.4c-59.6,18-105.4,75.6-109.7,137.6
						l-1.7-1.1c-13.9-8.9-24.9-15.8-40.4-5.5c-16.1,10.8-38.6,39.4-47.3,56.8c-15.4,30.8-24.9,63.8-28.5,98.1
						c-0.2,2.1-1.1,3.7-2.6,4.8c-1.6,1.1-3.6,1.5-5.8,1c-12-2.6-24.6-2.7-36.6-0.3c-4.6,0.9-8.2,5.1-8.4,10
						c-0.6,13.2-0.4,26.6-0.3,39.5c0.1,12.9,0.3,26.3-0.3,39.5c-0.1,2.6-2.5,4.1-4.9,4.2c-5.6,0.3-13.3,3.5-16,8.2
						c-3.4,6-3.2,13.4-3.1,19.3c0.8,31,2.9,57,11,82.7c0.4,1.3,0.2,2.7-0.5,3.8c-0.7,1-1.9,1.6-3.2,1.7c-12.1,0.4-27.3,5.2-31.6,6.7
						c-4,1.3-6.4,5.3-5.6,9.3c9.7,52.9,37.5,120.1,61.2,164.2h-87.2l0.5,1.8c0.3,1.1,29.4,106.9,233.8,167.4
						c-17.4,26.7-38,57.3-62.3,85.4c-2,2.3-4.3,5-7.3,6.5c-3.3,1.7-7.4,1.8-11.1,1.9l-60.5,1.7c-7.3,0.2-13.4,5.3-15.2,12.6
						c-2.4,10.1-8.7,19.8-14.4,28.1c-44,64-95.5,122.8-153.1,174.8l-0.6,0.6c-7.3,6.6-14.9,13.4-19.4,22.3c-4.6,9-6.1,20.2-4.3,32.5
						c5.6,38.7,42.6,71.3,85.9,75.9c3.9,0.4,7.8,0.6,11.7,0.6c34,0,69.9-14.9,100.2-41.8c30.1-26.7,51.8-61.7,70.8-95.7
						c32.6,47,73,89.1,120.2,124.9l0.4,0.3h540.2c26.8-18.4,62.2-50,70.1-68.1l1-2.4c3.1-7.3,7.3-17.4,17.2-23.3
						c8.3-5,17.6-5,23.6-5l81.2-0.2c15.4-9.2,70.4-40.9,101.7-42.5c8-0.4,16,0,24,0.4c6.9,0.4,13.7,0.7,20.7,0.4
						c5.8-0.3,11.7-1,17.6-1.8c15.3-2,31.1-4,47.3,0.9c9.1,2.8,16.8,7.4,23.8,12.6c3.2-2.5,7-4.6,11.7-5.4c7.4-1.2,13.6,1,17.4,2.4
						c44,16.2,99.2,42.7,157.7,70.7c45.6,21.8,92,44,133.1,61.3h247.1C2219.4,1880.4,2207.9,1855.1,2196.8,1847z M1562.1,1165.3
						c2.1,2,4.1,4.2,5,7.1c0.5,1.5,0.3,2.8-0.4,3.8c-1,1.5-2.9,1.6-3.5,1.6c-0.8,0.1-1.7,0.1-2.5,0.1c-6.4,0-13.4-1.8-21.1-5.4
						c-9.3-4.3-17.6-10.2-23.8-14.8c-6.6-4.9-14.1-10.9-19.9-18.3c-7.7-9.7-12.5-21.8-13.5-34.1c-0.7-8.1,0.6-14.8,3.7-19.9
						c4.7-7.8,13.2-11.4,19.5-13.1c2.2-0.6,4.9-1.1,7.4-0.3c7.8,2.4,6,11.1,4.8,16.9c-0.3,1.4-0.6,2.7-0.7,3.7
						c-0.8,7.9,0.1,16,2.5,23.6c1.4,4.3,3.3,8.4,5.6,12.2c6.3,10.1,15.6,18.1,24.7,25.8C1553.9,1157.9,1558.2,1161.5,1562.1,1165.3z
						 M1292.4,853.8c1.2-0.7,2.3-1.3,3.2-1.9c12.7-8,27.5-17,43.7-22.4c21.6-7.2,42.8-6.7,59.4,1.3c10.7,5.2,19.4,13.3,27.9,21.2
						c6.8,6.3,13.7,12.8,21.6,17.6c25.7,15.8,57.9,13.6,91.4,9.6c17.5-2.1,35.7-4.3,53.1,0.7c4.6,1.3,9.2,3.1,13.5,4.9
						c3.7,1.5,7.5,3,11.3,4.2c10.2,3.2,21,4.2,31.4,5.1l69.8,6.4c11.4,1.1,17.8,5.2,18.8,11.9c0.4,3.7-1.2,7.2-4.6,10.1
						c-1.4,1.2-2.6,2.3-4.2,2.8c-2.1,0.8-4.3,1.2-6.2,1.6c-9.2,1.7-18.6,0.8-24.8-0.1c-3.7-0.5-7.4-1.2-11.1-1.8
						c-6.6-1.2-13.5-2.4-20.3-2.7c-1.7-0.1-3.3-0.1-4.6,0.4c-1.3,0.4-2.2,1.3-2.4,2.3c-0.4,1.9,1.7,3.9,2.4,4.4
						c3.4,2.8,7.6,4.3,12.1,5.9c2.8,1,5.6,2,8.3,3.3c3.3,1.7,7.3,4.6,7.7,9.3c0.3,4.1-2.4,8.1-7.7,11.2c-11.7,6.8-26.6,7.9-38.8,2.9
						c-7.2-2.9-13.8-7.8-21-15.5c-2.2-2.4-4.5-4.9-7.3-8.4c-2.3-2.8-4.8-5.2-7.5-7.8c-6.7-6.4-12.4-11-18.2-14.7
						c-18.7-11.7-43.5-16.2-69.9-12.5c-3.8,0.5-8.2,1.3-11.1,3.9c-5.1,4.4-4.3,13.1-0.4,18.1c4.8,6.2,12.8,8.4,18.7,9.1
						c4.2,0.6,8.7,0.6,12.9,0.6c3.3,0,6.6,0.1,9.8,0.3c9.5,0.7,18.6,3.1,27.2,7.3c3.5,1.7,7.7,4.1,9.7,8.4c2.1,4.4,1.4,9.8-2.1,16.5
						c-11.6,22.1-36,36.5-60.8,36.5c-1.9,0-3.9-0.1-5.8-0.3c-8-0.7-14.2-2.8-18.9-6.4c-7.1-5.4-10.6-14-13.4-22.5l-0.8-2.4
						c-2.3-7.1-4.6-14.4-9.3-20c-4.8-5.7-13.7-9.3-20.2-5.5c-4.8,2.8-6.8,8.4-9,14.4c-1.9,5.2-3.8,10.5-7.7,14.5
						c-4.6,4.6-11.8,7-21.2,7c-0.1,0-0.2,0-0.2,0c-14.5,0-33.7-6-40.1-22.6c-2.9-7.4-2.4-15.4-2-23.2c0.5-8.1,0.9-15.8-2.2-22.7
						c-6.2-13.8-23.9-18.2-40.4-20.7l-32-4.9c-8-1.2-16.3-2.9-21.1-9.3c-2.5-3.3-3.4-6.6-2.7-9.9
						C1277.8,862.3,1286.2,857.4,1292.4,853.8z M588.1,1425.2c-46-18.6-83.3-49-105.1-85.6l-1.6-2.7l3.1-0.3
						c62.3-5.9,125.2-14.8,186.8-26.5c29.7-5.6,58.2-12.1,80.9-29.2c-9.7-19.5-17-40-21.8-61.1c-2.1,0.1-4.1,0.1-6.2,0.1
						c-31.9,0-63.6-7.1-94.4-14c-29.2-6.5-59.4-13.3-89.5-13.9c-3.4-0.3-11.5,0.3-12.7,5.4c-0.5,2.2,0.5,4.6,1.6,6.3
						c5.8,9.4,17.9,13,30.2,15.4c44.8,8.9,90.6,13.4,136.2,13.4h1.6l0.3,1.6c3,14.2,4.1,28.7,3.2,43.3l-0.1,1.8l-1.8,0
						c-25.5,0.6-51.2,6.1-76.1,11.4l-6.2,1.3c-28.1,6-57.6,10.5-81.2-5.4c-5.6-3.8-11.1-8.7-17.3-15.5
						c-29.3-32.3-43.6-73.8-38.4-110.9c0.3-2.2,0.8-4.6,2.4-6.4c4.1-4.6,11.5-1.9,14-1c67.6,24.8,141.3,35.6,213.3,31.6
						c2.8-0.2,5.1-0.4,7-1.5c1.9-1.1,3.1-3.2,4.5-5.5c3.9-6.7,31-63.1,31.6-71.3l-167.6-77.2c-5.8-2.7-12.4-5.7-19.1-5.7
						c-0.2,0-0.4,0-0.6,0c-6.2,0.2-13.1,4.1-14.2,10.3c-1.3,8,7,14.5,14.2,18.6c22.6,12.8,47.6,21.6,71.9,30.2
						c27.6,9.8,56.1,19.9,81.3,35.8l1.4,0.9l-16.4,40.2c-0.5,1.3-1.3,3.1-2.9,4.3c-1.9,1.4-4.2,1.3-5.8,1.3
						c-37.8-0.8-76.8-1.7-114.1-11.3c-8.9-2.3-20.5-5.7-30.9-12c-22.2-13.4-37.5-39.2-41-69.1c-1.6-13.6-2.6-32.8,2.1-47.5
						c3.9-12.6,8.4-25.3,12.6-37.6c2.1-6.1,4.3-12.2,6.3-18.4l0.4-1.3l1.4,0c0.6,0,1.2,0,1.7,0c19.8,0,38.1,9.5,54.3,18l164,85.7
						c5.1,2.7,10.5,5.1,15.2,3.4c2.9-1,5.2-3.6,7.3-6.2c14.4-18.2,21.2-41.9,27.2-62.8c0.6-2.1,1.3-4.4,1-6.5
						c-0.6-4.1-4.6-7.1-9-10.1c-23.4-15.7-44.1-35.6-64.1-54.9c-22.4-21.6-45.5-43.9-72.3-59.9c-4.2-2.5-9.8-1.5-13.1,2.3l-5.6,6.5
						c-1.9,2.1-2.7,4.9-2.5,7.7c0.2,2.8,1.5,5.4,3.7,7.1c36.4,30.2,75.1,58.3,115.1,83.5c6.3,4,15,9.5,17.7,18.3
						c1.7,5.6,0.6,11.6-3.2,17c-4.9,7-13.5,11.8-21.9,12.2c-13.6,1-25.6-5.8-38.9-13.9l-75.9-46.1c-12.4-7.5-25.2-15.3-35.5-26.2
						c-11.7-12.3-17.9-26.7-17.4-40.5c0.4-11.4,5.4-22.2,10.3-31.3c10.7-19.9,24-38.4,39.5-54.9c2.6-2.8,5.5-5.5,9.4-5.9
						c3.6-0.3,6.9,1.3,9.7,3c15.7,9.3,29.8,21.3,43.4,32.9l124.5,105.8c6.4,5.5,12.3,10.1,19.3,10.7c6.7,0.6,13.7-3,19.2-5.8
						l31.8-16.4c7-3.6,15.7-8.1,24.9-8.1c0.2,0,0.3,0,0.5,0c8.9,0.2,17,4.4,24.5,8.8c32.5,18.9,62.3,42,88.6,68.9
						c1.6,1.6,6.5,6.6,4.4,11.8c-1,2.5-3.4,4.4-7,5.4c-13,3.7-24.7-3.6-36-10.5c-5.9-3.6-12-7.4-18.1-9.6
						c-13.9-4.9-29.4-2.1-43.2,0.3c-3,0.5-5.6,1.1-7.2,2.8c-1.1,1.2-1.6,2.6-1.4,4.2c0.5,4.4,5.4,9.5,9.8,12.4
						c10.7,7.1,82,71.2,97.3,85.4c18.1,16.8,37.8,32.6,56.8,47.7c13.2,10.5,26.8,21.4,39.8,32.6c18.8,16.2,33.4,30.4,45.9,44.8
						c3.8,4.4,7.6,9.1,9,15c1.3,5.9-0.7,13.7-7,16.4c-3.4,1.5-7.1,1.1-10.3,0.5c-23.2-4.1-42.6-20.7-58.2-34.1l-214-183.5
						c-1.4,35-1.7,70.6-1.2,105.7l220.8,116.5c8.6,4.5,17.9,10.2,20.4,19.8c0.7,2.8,0.5,5.3-0.6,7.1c-2.2,3.6-6.8,3.8-10.1,3.7
						c-23.4-1.1-45.7-8.5-68.3-16.7c-82.5-29.7-163.6-65.5-241.2-106.5c2.9,46.4,23.6,91.4,57.1,123.7c1.3,1.2,2.5,2.4,4,3.1
						c2.2,1,5,1,7.6,0.8c64.9-2.4,130.2,3.5,193.7,17.3c10.8,2.3,22.4,6.1,27,15.9c1.6,3.3,1.6,6.6,0,8.8c-1.6,2.3-4.4,3.1-6.8,3.6
						c-43.3,9.4-89.4,5.6-134,1.9c-31.2-2.6-63.4-5.2-94.2-3.3c0.1,0.5,0.3,1.2,0.5,1.9c4.9,13.6,18.6,22.1,32.7,29.2
						c13.1,6.6,26.6,12.6,40.2,18c3.2,1.2,8.5,3.3,10.3,8.1c0.9,2.5,0.7,5.1-0.7,7.5c-2.7,4.7-9.3,7.9-14.8,9
						c-35.8,7.2-75.5,0.5-111.7-18.8c-13.4-7.2-26.6-16.1-39-26.6l-55.2-16.5c23.8,29.7,52.2,55.1,84.5,75.5l3.9,2.4l-4.4,1.1
						c-21.6,5.5-43.9,6.8-63.5,6.8c-6.9,0-13.4-0.2-19.5-0.4C668.4,1448.3,625.7,1440.3,588.1,1425.2z M569.2,1661.3
						c-6.2,11-11.2,22.7-14.8,34.9c-2,6.8-3.6,13.8-5.2,20.6c-2.5,10.9-5.1,22.2-9.4,32.8c-5.9,14.7-14.7,27.7-26.1,42.7
						c-12.4,16.4-29.4,37.5-50.3,54.7c-21.2,17.5-43.5,28.8-66.2,33.6c-6,1.2-11.4,1.9-16.4,1.9c-4.3,0-8.3-0.5-12-1.4
						c-16.2-3.9-30.1-16.6-42.6-38.6c-1.1-1.9-2.2-4-1.8-6.4c0.4-2.5,2.2-4.4,3.4-5.6c7-7.2,14.3-14.3,21.4-21.2
						c8.5-8.3,17.2-16.8,25.5-25.5c35-36.8,78.5-92.9,129.4-166.9c5-7.3,5-7.3,6-7.4c19.1-1.6,38.7-2.5,58.3-2.7
						c2.1,0,4.8,0.1,6.6,2c1.3,1.3,1.7,3.1,2,4.4c1.8,8.5,3.9,18.2,1.8,27.5c-1.4,6.4-4.7,12.2-7.9,17.7L569.2,1661.3z
						 M1246.7,1859.8c-2.8,0.9-5.8,0.7-8.3,0.5c-3.1-0.3-6.3-0.7-9.5-1.1c-9.9-1.2-20.2-2.5-29.9-0.6c-2,0.4-3.9,0.9-5.9,1.4
						c-3.8,1-7.7,2.1-11.8,2.2c-0.3,0-0.5,0-0.8,0c-6.2,0-13.2-2.7-15.8-8.9c-1.1-2.7-1.1-5.4-1.2-8.1c0-1.5,0-3-0.3-4.4
						c-1.1-7-7.2-12-12.5-14.4c-6.4-2.8-13.6-3.5-20.6-4.1c-34.6-3.1-70.3-6.3-105.3-1.4c-27.2,3.8-53.9,12.6-79.7,21.1
						c-6.5,2.1-12.9,5.3-19.1,8.4c-11.3,5.6-23,11.4-35.7,11.4l-192.6-0.2l-2.6-1.1c-15.7-6.8-31.9-13.8-47.1-22.2
						c-13.8-7.6-28.2-16.3-40-28.2c-15.9-16.1-27-38.7-31.4-63.7c-3.7-21.5-2.8-45.5,2.7-71.2c11.8-54.6,39-103.9,78.7-142.5
						c5.3-5.2,12.3-10.8,20.3-9.4c9,1.7,13.6,11.8,12.6,20.2c-1,8.4-5.9,15.4-10.3,21.7l-29.4,41.8c-2.5,3.5-4.8,8.9-3.8,12.4
						c0.2,0.9,0.7,1.6,1.3,2.1c16.8-12.1,31.4-27.4,45.5-42.3c13.6-14.3,27.6-29.1,43.7-41.1c45.9-34.1,110-47.5,196.1-40.8
						c41.2,3.2,101.5,11.2,149.6,43.3c47.8,31.9,75.3,85.8,68.3,134c-2.3,16-8.1,29.9-16.8,40.2c-11.9,14.1-39.4,24.1-49.2,22.1
						c-2.3-1-2.9-2.3-3-3.3c-0.4-3.5,3.7-7,10.6-12.5c2-1.6,4-3.2,5.2-4.4c16.3-15.9,26-39,25.9-61.7c-0.2-38-24.8-69.3-64.2-81.7
						c-9.9-3.1-18-4.1-25.1-3.1c-8.9,1.2-16.5,5.8-20.4,12.3c-1.1,1.8-1.5,3.2-1.3,4.3c0.2,1,0.9,2.1,1.4,2.8
						c3.9,5.2,9.5,8.6,15.5,12.2c6.9,4.2,14,8.4,18.1,15.6c5.8,10.1,4.1,24.2-4.5,38.7c-15.3,25.8-40.8,42.7-65.4,59.1
						c-18.4,12.2-37.3,24.8-52.1,41c-4.5,4.9-9.9,11.6-11.8,19.5c-1.6,6.4-0.6,15.1,5.4,20c6.1,5,15.3,4.6,24.7,4.6
						c14.7,0,30.7-0.5,44.8-6.5c2.5-1,4.9-2.3,7.3-3.5c2.7-1.4,5.6-2.8,8.5-4c12.7-5.1,26.8-5.5,39.3-5.8
						c41.2-1.1,82.4-2.2,123.6-3.3c5.5-0.2,11.8-0.3,17.5,2c4.8,1.9,8.5,5.3,12.2,8.6c2,1.8,4,3.6,6.1,5.2
						c5.4,3.9,11.7,6.1,18.3,8.5c7,2.5,14.2,5,20.3,9.7c9.8,7.6,15.3,20.4,14,32.7C1256.6,1850.1,1253.5,1857.6,1246.7,1859.8z
						 M1317.9,1323.8c-5.2,37.3-30.1,73.1-66.5,95.7c-30.5,18.9-68.9,29.5-114,31.4c-0.8,0-1.6,0.1-2.5,0.1c-3.2,0-6.4-0.4-9.2-2.3
						c-2.4-1.7-4-4.4-4.5-7.6c-0.6-4.1,0.8-8.7,3.5-12c4.4-5.2,11.1-7.6,17-9.7c27.9-9.8,63.3-24.2,90.3-49.8
						c27.4-25.9,41.5-60.1,37.7-91.6c-3.9-32.1-24.8-58.7-47.8-85.4c-139.9-162.8-423.1-473.7-434-479.8c-6.4-2.4-11.4-2.9-14.5-1.4
						c-1.7,0.9-2.7,2.4-3.3,4.6c-1.9,7.5,4.5,14.7,11,20.8c47.1,44,91,92.1,130.4,143.1c4.3,5.6,5.3,10.3,2.9,13.8
						c-1.6,2.3-4.2,3.3-6.1,4l-63.3,23.9c-5.8,2.2-13.1,4.9-20.2,3.6c-8.5-1.6-14.9-8.5-19.6-13.6c-31-33.4-62-66.9-92.9-100.4
						c-4.5-4.9-9.6-10.4-12.4-17.2c-4.1-9.9-2.6-20.8-0.9-29.2c8.9-44,38.1-82.5,78-103l1.3-0.7l1,1
						c56.3,57.1,248.6,264.5,330.7,353l23.4,25.2c33.8,36.5,68.2,73.8,102.1,111c20.6,22.6,44,48.2,60.5,77.3
						C1309,1251.3,1323.2,1286.1,1317.9,1323.8z M1596.6,1753.9c-0.8,2.2-2.7,3.5-4,4.4c-8.6,5.9-17.8,11.5-27.5,11.5
						c-1.2,0-2.4-0.1-3.6-0.3c-6.2-0.9-11.5-4.1-17-7.6c-46-29.7-87.2-65.9-122.6-107.6c-7.8-9.2-16.6-20.1-22.1-32.8
						c-3-7-4.1-12.7-3.6-18.1c0.8-6.9,4.3-12.9,8-18.5c14.1-21.6,31.8-42.8,55.6-66.8c1-1.1,2.6-2.7,4.9-3c2.1-0.1,4.1,0.8,5.4,1.5
						c6.9,3.9,13.6,8.3,20,12.9c0.7,0.5,2.3,1.7,2.4,3.6c0.1,1.7-1.1,2.9-1.7,3.5c-7.2,7.4-34.8,45.2-41.6,56.9v0
						c-3.1,5.2-5.7,10.3-5,15.4c0.6,4.1,3.5,7.7,6.4,11c29.4,34.1,66.4,61.6,102.2,88.1c4.7,3.5,9.3,6.9,14,10.4
						c9.4,7,21.1,15.8,28.3,27.5C1596.2,1748.1,1597.7,1751,1596.6,1753.9z M1810,1774.5c-2.9,3.6-7.2,6.6-11.1,6.6
						c-1,0-2-0.2-3-0.7c-2.8-1.4-5.2-3.3-7.3-5.1c-15.4-12.5-30.8-25.7-45.7-39.1c-26.2-23.5-51.8-48.5-75.9-74.2
						c-0.7-0.7-66.8-71.6-66.6-74.6l0-0.8l0.6-0.6l23-20.9l1.3,1.1c37.5,30.6,69.9,67.7,101.2,103.6c24.5,28.1,49.9,57.2,77.5,82.9
						l0.6,0.6c2.8,2.6,5.6,5.2,8,8.3C1815.5,1765.3,1813.1,1770.6,1810,1774.5z M2195.7,1895.2l-0.3,1.4l-1.5,0.1
						c-10.1,0.7-20.4,0.4-30.5-1c-3.1-0.4-6.4-1.1-8.7-3.5c-1.2-1.3-1.9-2.9-2.6-4.3c-0.4-1-0.9-2-1.4-2.8c-1.8-2.5-5.2-3.2-8.7-3.9
						c-3.2-0.7-6.5-1.4-9.2-3.4c-1.6-1.1-2.8-2.6-4-4c-1.4-1.7-2.8-3.3-4.5-4c-3.8-1.6-8.4,1.6-10.6,5.6c-1.3,2.3-2.1,4.7-2.9,7.3
						c-0.8,2.5-1.7,5-2.9,7.4c-3.6,6.8-10.8,11.5-19.4,12.6c-1.2,0.2-2.5,0.2-3.7,0.2c-7.2,0-13.9-2.7-18.3-7.6
						c-3.4-3.8-5.5-8.3-7.5-12.7c-1.9-4.2-3.8-8.2-6.6-11.5c-7.9-9-21.7-10.5-34-11.1l-2.9-0.1c-27.9-1.4-56.8-2.8-81.4-16.4
						c-18.1-10-31.9-25.5-45.3-40.6l-67-75.3c-20.3-22.9-39.4-47.4-57.9-71.1l-2.4-3c-2.5-3.2-5.4-6.9-6.8-11.3
						c-1.2-3.8-1.3-7.9-1.4-11.5l-1.4-84.1c-0.3-19.3-0.7-43.2,11-62.1c0.6-1,1.3-2,2-3.1c2.9-4.3,5.6-8.5,5.5-13
						c0-4.8-2.9-9-6.4-13.7c-11.6-15.7-23.3-31.4-35.1-47c-0.4-0.5-0.8-1-1.2-1.3c-0.4-0.3-0.8-0.3-1.3-0.2
						c-1.4,0.4-3.1,2.2-4.1,4.2c-8.2,17.1-4.3,39.2,9.3,52.4c1.1,1.1,2.2,2.1,3.4,3.1c2.5,2.2,5,4.4,7,7.2c4.2,5.7,5.5,13.4,3.5,21
						c-2,7.5-7,13.7-13.4,16.5c-0.5,0.2-1,0.4-1.6,0.6c-1.5,0.6-3,1.2-4,2.1c-2.1,1.9-2.5,5.3-2.7,8.7c-0.4,7.4-0.1,15,0.1,22.4
						c0.4,14.2,0.9,28.9-2.7,43c-0.3,1-0.7,2.8-2.2,3.9c-1.8,1.5-4.3,1.2-5.6,1.1c-12.3-1.2-24.4-3.7-30.3-13.4
						c-2.7-4.4-3.4-9.6-3.8-14.6c-0.7-8.8-0.5-17.7,0.6-26.5c0.9-7.4,1.2-15.4-4.1-18c-1.7-0.9-3.8-1-6.1-1.1
						c-2.7-0.1-5.4-0.3-8-1.7c-5.2-3-6.4-9.5-6.8-14.9c-0.5-6.1-0.3-12.4-0.2-18.6c0.2-10.3,0.5-21-2.1-30.6
						c-3.6-13.1-13.5-23.5-23.2-33.5c-2.5-2.6-5-5.1-7.3-7.7c-1.7-1.9-3.3-3.8-5-5.7c-6.7-7.7-13.6-15.7-22.5-20.2
						c-7.8-3.9-16.4-5.1-25.6-6.2c-7.5-1-15.2-2-22.4-4.7c-14.2-5.3-23.3-15.9-32.2-26.2c-2.4-2.8-4.9-5.7-7.5-8.4
						c-8.6-9.2-17.7-18.4-26.4-27.3c-5.7-5.8-11.4-11.6-17-17.4c-7.3-7.6-18.2-17.1-28.6-13.3c-6,2.2-9.7,8.3-13.4,14.1
						c-0.6,1-1.3,2.1-1.9,3.1c-2.4,3.7-11,15.5-22,12.6c-9.7-2.6-12.9-14.5-11.7-25.1c1.5-12.8,6.2-25,10.9-36.8
						c4.7-12,9.6-24.5,10.8-37.4c1.5-17.1-3.7-34.5-14.5-47.9c-6.7-8.3-15.4-15.1-23.8-21.7c-9.5-7.4-19.3-15-26.4-24.9
						c-22.3-31-11.5-74.9,10.1-100.4c10.3-12.2,27.1-21.4,39.8-12.9c4,2.7,6.7,6.7,9.3,10.5c1.3,2,2.7,4,4.2,5.8
						c9.2,10.8,26.4,13.6,38.5,6.1c0.9-0.6,1.8-1.2,2.8-1.8c4.8-3.3,10.3-6.9,16.2-4.6c2.6,1.1,4.6,3.1,5.6,5.8
						c2.2,5.8-0.1,13.8-2.7,19c-1.7,3.3-3.4,6.6-5.2,9.9c-6.5,12.2-13.2,24.8-15.9,38.4c-3.9,19.2,0.8,40.1,12.5,55.9
						c6,8.2,14,15.3,21.8,22.2c12.8,11.4,26.1,23.2,30.7,40c1,3.6,1.6,7.4,2.1,11c1,6.8,2,13.2,5.6,18.6c4,5.9,10.8,9.6,16.9,12.8
						c11.2,6,22.2,12.1,33.3,18.2c9.7,5.4,19.4,10.8,29.2,16.1c16.6,9,38.9,19.7,63.4,22.7c5,0.6,10.2,1,15.3,1.3
						c15.5,1,31.5,2,44.3,11.1c7,4.9,12.2,11.7,16.9,18.3c8,11.1,15.6,22.8,23,34c10.4,15.9,21.2,32.4,33.2,47.5
						c1.4,1.7,2.8,3.4,4.2,5.1c9.3,11.4,19,23.3,22.6,37.8c2.8,11,1.8,22.5,0.9,33.6l-0.2,2.6c-0.2,2.5-0.3,5.1-0.3,7.7
						c-0.1,5.1-0.3,10.3-1.4,15.3l-0.2,0.8c-1.3,5.8-2.5,10.9-2.8,17.1l-2.7,51c-0.2,4.7-0.7,13.3-6.7,17.5c-1,0.7-2,1.2-3.1,1.7
						c-1.2,0.6-2.2,1.1-3.1,1.8c-1.9,1.7-2.6,4.5-3.3,7.8c-1.8,8.9-3,16.9,0.2,23.7c1.7,3.6,4.6,6.7,7.1,9.5
						c22.5,24.2,46.9,47.3,72.3,68.5c12.5,10.5,25.5,20.7,38.8,30.5c7.1,5.2,16,8.5,24.5,11.8c5.5,2.1,11.2,4.2,16.5,6.9
						c10.9,5.5,21.6,11.7,31.9,17.7c19.6,11.4,39.8,23.2,61.6,30c15,4.7,30.8,7.1,46.2,9.4c13,1.9,26.4,4,39.3,7.4
						c17.4,4.6,34,11.6,49.4,21c2.5,1.5,4.9,3.1,6.8,5.2C2199.2,1872.8,2198,1884.1,2195.7,1895.2z"/>
					<path class="st0" d="M389.2,1928c-3.9,0-8-0.2-11.9-0.6c-44.4-4.6-82.3-38.1-88.1-77.9c-1.9-12.8-0.3-24.5,4.5-34
						c4.8-9.3,12.5-16.3,20-23l0.6-0.6c57.5-51.9,108.9-110.5,152.8-174.3c5.6-8.1,11.7-17.6,14-27.3c2-8.4,9-14.3,17.5-14.5
						l60.5-1.7c3.4-0.1,7.2-0.2,10-1.6c2.5-1.3,4.6-3.7,6.5-5.9c23.7-27.4,43.5-56.7,60.3-82.4c-202.4-60.9-232.1-167.1-232.4-168.2
						l-0.5-1.8c-0.2-0.7,0-1.5,0.4-2.1c0.5-0.6,1.2-0.9,1.9-0.9h83.2c-23.2-43.9-50.1-109.7-59.5-161.3c-1-5.3,2.1-10.4,7.3-12.1
						c4.4-1.5,19.8-6.4,32.3-6.8c0.6,0,1-0.2,1.3-0.6c0.3-0.4,0.4-1.1,0.2-1.7c-8.2-26-10.4-52.1-11.2-83.4
						c-0.2-6.3-0.3-14,3.4-20.6c3.1-5.5,11.6-9.1,18-9.4c1,0,2.5-0.6,2.6-1.9c0.6-13.1,0.4-26.3,0.3-39.2
						c-0.2-13.1-0.3-26.5,0.3-39.8c0.3-6,4.6-11.2,10.3-12.3c12.3-2.4,25.3-2.3,37.6,0.4c1.5,0.3,2.9,0.1,3.9-0.6
						c0.9-0.7,1.4-1.7,1.6-3.1c3.6-34.6,13.2-67.9,28.7-98.9c8.8-17.7,31.8-46.8,48.2-57.8c16.1-10.7,27.9-4.1,41.3,4.4
						c6.1-61.3,52.2-118,111.1-135.8c4.9-1.5,10.7-2.8,16.3-1.4c6.5,1.7,11.3,6.8,14.8,10.5c88.8,93.7,267.5,279.6,340.2,355.2
						l0.9,1l99.6-141.7c0.3-0.4,0.6-0.7,1.1-0.9l15.8-6.5c44.9-18.6,112.9-46.7,134.6-45.5c18,1,32.5,13.3,49.3,27.6
						c12.3,10.5,25.1,21.3,40.4,28.2c25.7,11.5,52.9,9.6,79.3,7.7c16.7-1.2,32.4-2.3,47.6-0.2c26.7,3.7,47.3,6.8,69.5,13.9l10,3.2
						c29.5,9.4,59.9,19.1,90.6,23.4c1.6,0.2,2.5,0.3,3,0.3c0.3-0.2,0.6-0.3,0.9-0.4c1.3-0.2,2.4,0.5,2.7,1.6
						c0.2,0.5,0.8,3.2-1.9,10.6c-11.8,31.8-30.3,61.8-53.5,86.6c-4.3,4.6-9.3,9.7-14.8,11.9c-8.8,3.6-19.8,1.1-33.2-2.6
						c-24-6.6-49.5-12.3-74-5c-21.2,6.4-39,22.4-47.6,42.9c-5.6,13.3-7.1,28.6-4.4,43.1c2.3,12.1,9.7,23,20.5,29.8
						c10.7,6.8,23.7,8.9,35.6,5.7c5.4-1.4,11-3.6,15.5-5.3c7.4-2.9,14.5-5.6,21.1-5.8c0.1,0,0.2,0,0.3,0c3.3,0,4.8,0.6,5,0.7
						c0.3,0.1,0.5,0.3,0.8,0.5c0.7,0.7,1.3,2.5,1.7,4.8c1.9,12-3.8,26.3-14.9,37.4c-11,11-25.3,18.3-41.5,26l-2.3,1.1
						c-15.9,7.6-32.3,15.4-46.4,27.6c-1.2,1.1-4.1,3.6-5.6,7.6c-1.6,4.2-2.2,10.8,3.8,18.7c18.4,24,47.5,35.6,70.8,43.1
						c34.3,11,69.8,17.9,100,23.1c4.5,0.8,9.1,1.6,11.9,3.4c2,1.3,4.2,3.9,6.3,6.4c32.6,39.4,66.2,86,83.4,110.3
						c7.4,10.5,11.2,22.9,10.8,35.8l-4,152.8c-0.2,5.9-1.3,12.1-3.5,18.4c-1.6,4.8-5.9,17.5,1.7,25.9
						c44.7,49.1,107.2,94.1,167.1,120.3c6.3,2.7,12.6,5.3,19.2,8c0.9,0.3,1.5,1.1,1.5,2.1l0.5,5.9l15.5-1.3c0.4,0,0.7,0,1,0.1
						c32.8,11.3,63.8,17.8,103.3,24.7c23.2,4.1,47.1,9.7,65.4,23l0,0c12.6,9.2,23.6,35.7,20.3,68.4c-0.1,1.2-1.2,2.2-2.4,2.2H1969
						c-0.3,0-0.6-0.1-0.9-0.2c-42.4-17.8-90.7-40.9-133.2-61.4c-58.3-28-113.5-54.4-157.4-70.6c-3.2-1.2-9.3-3.3-16.2-2.3
						c-3.6,0.7-7,2.3-10.6,5c-0.9,0.6-2,0.7-2.9,0c-8.3-6.1-15.4-9.9-23-12.2c-15.8-4.8-31.3-2.8-46.3-0.8l-1.2,0.2
						c-5.4,0.7-11,1.4-16.6,1.7c-7.3,0.3-14.5-0.1-20.9-0.4c-8.5-0.5-16.2-0.8-23.8-0.4c-30.6,1.5-84.7,32.6-100.6,42.1
						c-0.4,0.2-0.8,0.3-1.2,0.3l-81.2,0.2c-5.8,0-14.6,0-22.4,4.7c-9.2,5.5-13.3,15.1-16.2,22.1l-1,2.5c-8.7,20-46.7,52.4-70.9,69.1
						c-0.4,0.3-0.9,0.4-1.4,0.4H680.7c-0.5,0-1.1-0.2-1.5-0.5c-46.7-35.5-86.5-76.6-118.8-122.6c-18.4,32.9-39.7,66.6-69.4,92.9
						C460.2,1912.9,424.1,1928,389.2,1928z M408.8,1315.9c4,11.9,41.5,108.2,231.8,164.5c0.7,0.2,1.3,0.8,1.6,1.5
						c0.3,0.7,0.2,1.5-0.2,2.2c-17.3,26.4-37.8,57.1-62.5,85.6c-2.2,2.5-4.7,5.4-8,7.1c-3.8,2-8.4,2.1-12.1,2.2l-60.5,1.7
						c-6.2,0.2-11.4,4.5-12.9,10.8c-2.5,10.5-8.9,20.5-14.8,28.9c-44.1,64.1-95.7,123.1-153.5,175.2l-0.6,0.6
						c-7.1,6.4-14.5,13.1-18.9,21.6c-4.4,8.5-5.8,19.3-4.1,31.1c5.5,37.7,41.5,69.4,83.7,73.8c3.8,0.4,7.7,0.6,11.4,0.6
						c33.7,0,68.7-14.6,98.5-41.2c30.1-26.7,51.6-61.5,70.2-95.1c0.4-0.7,1.2-1.2,2-1.3c1,0,1.7,0.3,2.1,1
						c32.4,46.7,72.6,88.5,119.4,124.2h538.6c27.4-19,61.2-49.7,68.6-66.6l1-2.4c3.2-7.7,7.6-18.1,18.2-24.5
						c8.9-5.3,18.5-5.4,24.9-5.4l80.5-0.2c16.8-10,70.9-40.9,102.3-42.5c7.8-0.4,15.6,0,24.3,0.4c4.6,0.2,9.6,0.5,14.7,0.5
						c-4-1.6-7.7-3.8-11.4-6.3c-46.2-29.9-87.6-66.2-123.2-108.1c-7.9-9.3-16.9-20.4-22.5-33.4c-3.2-7.4-4.4-13.5-3.8-19.3
						c0.8-7.4,4.6-13.7,8.4-19.5c14.2-21.8,32-43.1,55.9-67.2c1.1-1.1,3.2-3.3,6.3-3.7c2.3-0.2,4.6,0.5,7,1.9
						c7,4.1,13.8,8.4,20.2,13c0.8,0.6,3.3,2.3,3.4,5.6c0.1,2.7-1.6,4.5-2.3,5.2c-7.1,7.3-34.3,44.4-41.2,56.3c0,0.1-0.1,0.1-0.1,0.2
						c-2.8,4.8-5.3,9.5-4.6,13.8c0.5,3.5,3.2,6.7,5.8,9.8c29.2,33.9,66.1,61.3,101.8,87.8l14,10.4c9.6,7.2,21.5,16.1,28.9,28.2
						c0.8,1.4,3.4,5.5,1.8,9.8l0,0c-1,3-3.6,4.7-5,5.6c-4,2.7-8.1,5.4-12.4,7.5c14.3-1.8,29.1-3.1,44.5,1.5c9.7,3,17.6,8,23.1,11.9
						c3.7-2.6,7.3-4.1,11.3-4.8c8.3-1.4,15,1.2,18.7,2.5c44.2,16.3,99.4,42.8,157.9,70.8c42.4,20.3,90.3,43.3,132.6,61h244.3
						c2.4-29.6-7.6-53.8-18.5-61.8c-17.4-12.7-40.8-18.2-63.4-22.1c-39.5-6.9-70.7-13.5-103.5-24.8l-15.1,1.3
						c12.2,6.5,24.7,12.4,37.7,16.5c14.7,4.6,30.3,7,45.4,9.3c13.4,2,26.8,4,40,7.5c17.6,4.7,34.5,11.8,50.1,21.3
						c2.5,1.5,5.2,3.2,7.4,5.6c7.8,8.5,6.6,20.5,4.1,32.2l-0.3,1.4c-0.2,1.1-1.1,1.9-2.2,1.9l-1.5,0.1c-10.1,0.7-20.6,0.4-31-1
						c-3.4-0.5-7.3-1.2-10.1-4.2c-1.5-1.6-2.4-3.5-3-4.9c-0.4-1-0.8-1.8-1.2-2.3c-1.3-1.7-4.2-2.4-7.3-3c-3.3-0.7-7-1.5-10.1-3.8
						c-1.8-1.3-3.1-2.9-4.3-4.3c-1.3-1.6-2.5-3-3.7-3.5c-2.4-1-5.9,1.5-7.6,4.5c-1.1,2.1-1.9,4.4-2.7,6.9c-0.9,2.6-1.7,5.2-3.1,7.8
						c-4,7.5-11.9,12.7-21.2,13.9c-9.5,1.2-18.4-1.9-24.1-8.2c-3.6-4-5.8-8.7-7.9-13.2c-1.9-4.2-3.7-8.1-6.3-11.1
						c-7.2-8.3-20.5-9.6-32.3-10.2l-2.9-0.1c-28.3-1.4-57.4-2.8-82.5-16.7c-18.5-10.2-32.4-25.9-45.9-41.1l-67-75.3
						c-20.4-23-39.5-47.5-58-71.2l-2.4-3c-2.7-3.5-5.6-7.3-7.2-12c-1.4-4.2-1.4-8.5-1.5-12.2l-1.4-84.1c-0.3-19.6-0.7-44,11.4-63.4
						c0.5-0.8,1-1.5,1.5-2.3l0.5-0.8c2.8-4.2,5.2-7.8,5.2-11.7c0-4-2.7-7.9-5.9-12.3c-11.6-15.7-23.3-31.4-35.1-47
						c-0.1-0.1-0.2-0.2-0.3-0.4c-0.5,0.4-1.5,1.4-2.1,2.7c-7.8,16.2-4.1,37,8.8,49.6c1.1,1,2.2,2,3.3,3c2.6,2.3,5.2,4.6,7.4,7.6
						c4.7,6.4,6.1,14.8,3.8,23.1c-2.2,8.2-7.7,15-14.8,18.1l-1.6,0.7c-1.3,0.5-2.6,1-3.3,1.7c-1.5,1.3-1.8,4.3-1.9,7
						c-0.4,7.3-0.1,14.9,0.1,22.2c0.4,14.4,0.9,29.3-2.8,43.7c-0.3,1.3-1,3.6-3,5.2c-2.5,2.1-5.6,1.7-7.2,1.6
						c-13.1-1.3-25.9-3.9-32.3-14.6c-3-4.9-3.8-10.4-4.2-15.6c-0.7-8.9-0.5-18,0.6-27c0.8-6.2,1.1-13.6-2.7-15.5
						c-1.3-0.6-3.1-0.7-5.1-0.8c-2.8-0.1-6-0.3-9.1-2c-6.3-3.5-7.6-10.9-8-16.8c-0.5-6.1-0.3-12.5-0.2-18.7
						c0.2-10.3,0.5-20.9-2.1-30.1c-3.4-12.5-13.1-22.6-22.5-32.4c-2.5-2.6-5-5.2-7.4-7.8c-1.7-1.9-3.4-3.8-5-5.7
						c-6.5-7.5-13.3-15.3-21.8-19.6c-7.4-3.8-15.9-4.8-24.8-6c-7.6-1-15.4-2-22.9-4.8c-14.7-5.5-24.1-16.4-33.2-26.9
						c-2.4-2.8-4.8-5.6-7.4-8.4c-8.5-9.1-17.5-18.2-26.1-27l-1.4-1.4c-5.3-5.4-10.6-10.8-15.9-16.3c-6.8-7.1-16.9-16-26-12.7
						c-5.2,1.9-8.7,7.6-12.1,13.1c-0.6,1-1.3,2.1-2,3.1c-2.6,4-12.1,17-24.7,13.6c-11.2-3-14.8-16.1-13.5-27.8
						c1.5-13.1,6.3-25.4,11-37.3c4.7-12,9.5-24.2,10.7-36.8c1.5-16.4-3.6-33.3-13.9-46.2c-6.5-8.2-15.1-14.8-23.4-21.3
						c-9.6-7.5-19.6-15.2-26.9-25.4c-23.1-32.1-11.9-77.2,10.2-103.4c11-13,29.1-22.7,43.1-13.3c4.4,3,7.2,7.2,10,11.2
						c1.3,2,2.6,3.9,4,5.6c8.4,9.9,24.3,12.5,35.3,5.6c0.9-0.5,1.8-1.1,2.7-1.8c5.1-3.4,11.4-7.7,18.5-4.8c3.3,1.3,5.7,3.8,7,7.2
						c2.5,6.5,0.2,15.1-2.8,20.9c-1.7,3.3-3.4,6.6-5.2,10c-6.4,12.1-13,24.5-15.7,37.7c-3.7,18.6,0.8,38.7,12,53.9
						c5.9,8,13.8,15,21.4,21.8c13.1,11.6,26.6,23.7,31.4,41.2c1.1,3.8,1.7,7.8,2.2,11.3c1,6.5,1.9,12.7,5.2,17.6
						c3.7,5.4,10.2,8.9,16,12c10.7,5.7,21.2,11.6,31.8,17.4l2.6,1.5c9.3,5.2,18.7,10.3,28,15.4c16.4,8.9,38.4,19.5,62.5,22.5
						c4.9,0.6,10.1,0.9,15.1,1.3c15.9,1,32.2,2.1,45.6,11.6c7.3,5.1,12.6,12.1,17.5,18.8c7.8,10.8,15.3,22.2,22.4,33.1l0.6,1
						c9.8,15.1,21,32.1,33.1,47.3c1.2,1.5,2.4,3,3.6,4.5l0.5,0.6c9.5,11.7,19.3,23.7,23.1,38.7c2.9,11.4,1.9,23.1,0.9,34.4l-0.2,2.6
						c-0.2,2.4-0.3,5-0.3,7.5c-0.1,5.2-0.3,10.6-1.5,15.7l-0.2,0.8c-1.3,5.7-2.4,10.6-2.7,16.6l-2.7,51c-0.3,5.1-0.8,14.5-7.8,19.4
						c-1.1,0.7-2.3,1.3-3.5,1.9c-1.1,0.5-1.9,0.9-2.5,1.4c-1.4,1.2-1.9,3.6-2.5,6.5c-1.7,8.5-2.8,16,0,22.2c1.5,3.3,4.3,6.2,6.7,8.8
						c22.4,24.1,46.7,47.1,72.1,68.3c12.5,10.5,25.5,20.7,38.7,30.4c6.8,5,15.4,8.2,23.8,11.4c5.9,2.2,11.6,4.4,16.9,7
						c11.2,5.6,22.3,12.1,32,17.8c6.1,3.5,12.2,7.1,18.4,10.5l-0.5-6.1c-6.2-2.4-12.1-4.9-18-7.5c-60.5-26.4-123.6-71.8-168.7-121.5
						c-9.6-10.5-4.6-25.2-2.7-30.7c2-5.9,3.1-11.6,3.2-17l4-152.8c0.3-11.9-3.1-23.2-9.9-32.9c-17.1-24.3-50.7-70.8-83.1-109.9
						c-1.9-2.2-3.9-4.6-5.3-5.6c-1.9-1.3-6.2-2-10-2.7c-30.4-5.3-66-12.2-100.6-23.3c-24-7.7-54-19.7-73.2-44.8
						c-7.4-9.7-6.5-18.1-4.5-23.4c1.9-5.1,5.5-8.2,7-9.5c14.6-12.7,31.3-20.6,47.4-28.3l2.3-1.1c15.8-7.6,29.7-14.7,40.2-25.1
						c10-10,15.2-22.7,13.5-33.2c-0.1-0.8-0.3-1.4-0.4-1.8c-0.6-0.1-1.5-0.1-2.4-0.2c-5.8,0.2-12.4,2.7-19.5,5.4
						c-4.6,1.8-10.3,4-16,5.5c-13.2,3.5-27.6,1.2-39.5-6.3c-11.9-7.5-20.2-19.5-22.7-33c-2.9-15.4-1.2-31.7,4.7-45.9
						c9.1-21.8,28.1-38.9,50.7-45.7c25.8-7.7,52-1.8,76.7,5c12.5,3.4,22.7,5.8,30.1,2.8c4.6-1.9,9.2-6.5,13.1-10.7
						c22.7-24.4,40.8-53.8,52.5-85c0.9-2.4,1.4-4.2,1.6-5.4c-0.7-0.1-1.5-0.2-2.5-0.3c-31-4.3-61.6-14.1-91.2-23.5l-10.2-3.2
						c-21.9-6.9-42.3-10-68.7-13.7c-14.6-2-30.1-0.9-46.5,0.2c-27,1.9-54.9,3.9-81.7-8.1c-16-7.2-29-18.2-41.6-28.9
						c-16.1-13.7-30.1-25.6-46.5-26.5c-20.6-1-90.6,27.8-132.4,45.1l-15.2,6.3l-100.9,143.5c-0.4,0.6-1.1,1-1.8,1
						c-0.7,0.1-1.4-0.2-1.9-0.7l-3-3.1c-72.7-75.6-251.4-261.5-340.3-355.2c-3.3-3.5-7.4-7.8-12.5-9.1c-4.4-1.1-9.2,0-13.7,1.4
						c-58.3,17.6-103.7,74.5-108,135.5c-0.1,0.9-0.6,1.6-1.3,2c-0.8,0.4-1.7,0.4-2.4-0.1l-1.7-1.1c-13.7-8.7-23.6-14.9-37.7-5.5
						c-15.8,10.6-38,38.7-46.5,55.9c-15.2,30.5-24.7,63.2-28.2,97.2c-0.3,2.7-1.5,5.1-3.6,6.5c-2.1,1.6-4.9,2.1-7.8,1.4
						c-11.6-2.5-23.9-2.7-35.6-0.3c-3.6,0.7-6.2,4-6.4,7.8c-0.6,13.2-0.4,26.5-0.3,39.3c0.1,13.1,0.3,26.5-0.3,39.7
						c-0.2,4.1-3.8,6.4-7.2,6.6c-4.9,0.2-11.8,3.2-14,7c-3.1,5.4-2.9,12.4-2.8,18c0.8,30.9,2.9,56.7,10.9,82.1
						c0.7,2.1,0.3,4.3-0.9,6c-1.2,1.7-3,2.7-5.1,2.7c-11.8,0.4-26.6,5.1-30.9,6.5c-2.9,0.9-4.5,3.7-4,6.6
						c9.6,52.5,37.5,119.9,60.9,163.5c0.4,0.8,0.4,1.7,0,2.4c-0.4,0.7-1.2,1.2-2.1,1.2H408.8z M1727,1403.8c0.6,0,1.4,0.2,2.1,0.6
						c0.7,0.5,1.3,1.2,1.7,1.9c11.8,15.6,23.5,31.3,35.1,47.1c3.7,5,6.8,9.7,6.8,15.1c0,5.3-3,9.9-5.9,14.4l-0.5,0.8
						c-0.5,0.7-1,1.4-1.4,2.2c-11.3,18.3-11,41.8-10.6,60.8l1.4,84.1c0.1,3.4,0.1,7.3,1.2,10.8c1.3,3.9,4,7.4,6.3,10.4l2.4,3.1
						c18.4,23.7,37.5,48.1,57.8,71l67,75.3c13.2,14.9,26.9,30.2,44.6,40.1c24.1,13.3,52.7,14.7,80.3,16.1l3,0.1
						c12.8,0.6,27.3,2.1,35.8,11.9c3.1,3.6,5.1,7.9,7,12.1c2,4.3,4,8.7,7.1,12.1c4.6,5.1,12.1,7.5,19.8,6.6
						c7.8-1,14.3-5.2,17.5-11.3c1.2-2.2,2-4.6,2.7-7c0.9-2.6,1.8-5.3,3.2-7.8c2.8-4.8,8.5-8.8,13.7-6.6c2.3,1,3.9,2.9,5.5,4.7
						c1.2,1.4,2.3,2.7,3.6,3.6c2.3,1.7,5.2,2.3,8.3,3c3.8,0.8,7.8,1.7,10.2,4.9c0.7,1,1.2,2.1,1.7,3.2c0.6,1.4,1.2,2.7,2.1,3.7
						c1.8,1.8,4.4,2.3,7.2,2.7c9.9,1.4,19.9,1.7,29.6,1c2.2-10.3,3.2-20.8-3-27.6c-1.8-1.9-4-3.4-6.3-4.8
						c-15.2-9.2-31.6-16.2-48.8-20.7c-12.9-3.4-26.2-5.4-39-7.3c-15.7-2.4-31.5-4.8-46.6-9.5c-22-6.9-42.4-18.7-62-30.2
						c-9.8-5.7-20.8-12.2-31.9-17.7c-5-2.5-10.6-4.6-16-6.7c-9.1-3.4-18.1-6.8-25.4-12.2c-13.2-9.8-26.3-20.1-38.9-30.6
						c-25.6-21.4-50-44.5-72.5-68.7c-2.5-2.7-5.7-6.1-7.5-10.1c-3.5-7.5-2.2-15.8-0.3-25.2c0.7-3.7,1.6-7,4.1-9.2
						c1.1-1,2.3-1.6,3.6-2.2c1-0.5,2-1,2.8-1.5c5.1-3.5,5.5-11.4,5.7-15.6l2.7-51c0.3-6.4,1.6-11.8,2.9-17.5l0.2-0.8
						c1.1-4.7,1.2-9.8,1.3-14.8c0.1-2.7,0.1-5.3,0.4-7.8l0.2-2.7c0.9-10.9,1.9-22.1-0.8-32.8c-3.5-13.9-13-25.5-22.1-36.7l-0.6-0.7
						c-1.2-1.5-2.5-3-3.7-4.5c-12.3-15.4-23.5-32.5-33.4-47.7l-0.6-1c-7.2-10.9-14.5-22.2-22.3-32.9c-4.6-6.4-9.7-13-16.3-17.7
						c-12.2-8.7-27.9-9.7-43-10.7c-5.2-0.3-10.4-0.7-15.5-1.3c-24.9-3.1-47.4-13.9-64.2-23c-9.4-5.1-18.7-10.3-28.1-15.4l-2.6-1.5
						c-10.6-5.8-21.1-11.7-31.8-17.4c-6.3-3.4-13.4-7.2-17.8-13.6c-3.9-5.8-4.9-12.5-6-19.6c-0.5-3.4-1.1-7.2-2.1-10.7
						c-4.5-16.1-17.4-27.7-30-38.9c-7.8-7-15.9-14.2-22.1-22.5c-12.1-16.3-16.9-37.9-12.9-57.8c2.8-13.9,9.6-26.6,16.1-39
						c1.8-3.3,3.5-6.6,5.2-9.9c2.6-5.1,4.4-12.3,2.6-17c-0.8-2.1-2.2-3.5-4.2-4.3c-4.7-1.9-9.4,1.3-14,4.3c-1,0.6-1.9,1.3-2.9,1.9
						c-13,8.1-31.7,5.1-41.6-6.6c-1.5-1.8-2.9-3.9-4.3-5.9c-2.5-3.8-5.1-7.5-8.7-10c-11.5-7.7-27,1.1-36.6,12.4
						c-21,24.8-31.6,67.3-10,97.4c7,9.7,16.6,17.2,25.9,24.4c8.6,6.6,17.4,13.5,24.3,22.1c11.1,13.9,16.6,32,15,49.7
						c-1.2,13.3-6.1,25.9-10.9,38.1c-4.6,11.7-9.3,23.7-10.7,36.2c-1.1,9.6,1.6,20.3,9.9,22.5c9.4,2.5,17.2-8.2,19.4-11.5
						c0.6-1,1.3-2,1.9-3c3.8-6.2,7.8-12.7,14.6-15.2c11.8-4.3,23.4,5.9,31.2,13.9c5.2,5.4,10.5,10.8,15.9,16.2l1.2,1.2
						c8.9,9.1,17.9,18.2,26.5,27.4c2.6,2.8,5.1,5.7,7.5,8.5c8.7,10,17.6,20.4,31.2,25.5c7,2.6,14.5,3.6,21.8,4.5
						c9.3,1.2,18.2,2.3,26.3,6.5c9.4,4.8,16.5,12.9,23.3,20.8c1.7,1.9,3.3,3.8,5,5.6c2.3,2.6,4.8,5.1,7.3,7.7
						c9.9,10.3,20.1,20.9,23.8,34.6c2.7,9.9,2.5,20.8,2.2,31.3c-0.1,6.2-0.3,12.5,0.2,18.4c0.4,4.8,1.3,10.6,5.6,13
						c2.1,1.2,4.5,1.3,6.9,1.4c2.4,0.1,4.9,0.2,7,1.3c6.6,3.3,6.4,12.2,5.4,20.5c-1.1,8.6-1.3,17.4-0.6,26c0.4,4.6,1.1,9.5,3.5,13.5
						c5.3,8.8,16.8,11.1,28.4,12.2c1.2,0.1,2.8,0.2,3.8-0.6c0.8-0.6,1.1-1.8,1.3-2.7c3.6-13.8,3.1-28.3,2.7-42.3
						c-0.2-7.5-0.5-15.1-0.1-22.6c0.2-3.9,0.7-7.9,3.5-10.4c1.4-1.2,3.1-1.9,4.8-2.6l1.6-0.6c5.7-2.5,10.2-8.1,12-14.9
						c1.8-6.9,0.7-13.8-3.1-18.9c-1.9-2.5-4.3-4.7-6.6-6.7c-1.3-1.1-2.4-2.1-3.6-3.2c-14.3-14-18.4-37.2-9.7-55.2
						c1-2.1,3.1-4.8,5.6-5.5C1726,1403.9,1726.5,1403.8,1727,1403.8z M2195.4,1896.7L2195.4,1896.7L2195.4,1896.7z M1465.1,1517.7
						c-0.1,0-0.2,0-0.3,0c-1.2,0.2-2.4,1.4-3.3,2.2c-23.7,23.8-41.3,44.9-55.3,66.4c-3.5,5.3-6.9,11-7.6,17.4
						c-0.5,4.9,0.5,10.3,3.4,16.9c5.4,12.4,14,23.1,21.7,32.2c35.3,41.5,76.3,77.5,122.1,107.2c5.2,3.3,10.3,6.4,16,7.2
						c10.5,1.6,20.2-4.6,29.4-10.9c1-0.7,2.6-1.7,3.1-3.2l0,0c0.7-1.9-0.5-4.1-1.4-5.6c-7-11.4-18.4-19.9-27.7-26.8l-14-10.4
						c-35.9-26.7-73-54.2-102.6-88.5c-3-3.5-6.2-7.5-7-12.2c-0.9-5.8,1.9-11.3,5.2-16.8c0-0.1,0.1-0.1,0.1-0.2
						c6.9-11.8,34.7-49.9,42-57.4c0.4-0.4,1-1.1,1-1.7c0-0.7-0.7-1.3-1.4-1.8c-6.2-4.5-12.9-8.8-19.8-12.7
						C1467.4,1518.1,1466.2,1517.7,1465.1,1517.7z M380.8,1884.9c-4.5,0-8.7-0.5-12.6-1.4c-16.8-4.1-31.3-17.1-44.2-39.8
						c-1.3-2.3-2.5-5-2.1-8c0.5-3.3,2.7-5.6,4-7c6.9-7.1,14.2-14.2,21.2-21c8.7-8.5,17.4-17,25.6-25.6
						c34.9-36.7,78.4-92.8,129.2-166.6c5.6-8.2,5.6-8.2,7.7-8.4c19.3-1.6,38.9-2.5,58.5-2.7c2.4,0,5.9,0.1,8.4,2.7
						c1.8,1.8,2.3,4.2,2.6,5.6c1.9,8.8,4,18.8,1.8,28.6c-1.5,6.8-4.9,12.6-8.2,18.3l-1.7,2.9c-6.1,10.9-11,22.4-14.6,34.4
						c-2,6.6-3.5,13.6-5.1,20.3c-2.6,11.2-5.2,22.5-9.5,33.4c-6,14.9-14.9,28.1-26.4,43.3c-12.5,16.5-29.6,37.8-50.7,55.2
						c-21.5,17.8-44.1,29.2-67.3,34.1C391.6,1884.3,386.1,1884.9,380.8,1884.9z M568.3,1609.2c-19.4,0.2-39,1.1-58,2.7
						c0.1,0.1-1.4,2.3-4.2,6.3c-51,74.1-94.6,130.3-129.7,167.2c-8.3,8.7-17,17.2-25.4,25.5c-7.3,7.1-14.5,14.2-21.4,21.3
						c-1,1.1-2.4,2.5-2.7,4.2c-0.2,1.6,0.6,3.3,1.5,4.9c12.2,21.4,25.6,33.7,41.1,37.4c7.8,1.9,16.6,1.7,27.4-0.5
						c22.4-4.7,44.3-15.8,65.2-33.1c20.7-17.1,37.5-38,49.9-54.3c11.3-14.9,19.9-27.8,25.7-42.2c4.2-10.5,6.8-21.6,9.3-32.4
						c1.6-7,3.2-14,5.2-20.8c3.6-12.3,8.7-24.2,15-35.4l0,0l1.7-2.9c3.1-5.4,6.3-11,7.6-17c2-8.8,0-18.2-1.8-26.5
						c-0.2-1.1-0.5-2.5-1.3-3.3C572.1,1609.3,570,1609.2,568.3,1609.2z M1180.5,1864.7c-6.4,0-14.9-2.7-18.1-10.4
						c-1.3-3.2-1.3-6.3-1.3-9c0-1.4,0-2.7-0.2-4.1c-0.9-6-6.3-10.4-11-12.5c-6-2.7-13-3.3-19.8-3.9c-34.4-3.1-69.9-6.3-104.8-1.4
						c-27,3.8-53.5,12.5-79.3,21c-6.2,2-12.5,5.1-18.5,8.1c-11.8,5.9-23.8,11.8-37,11.8l-192.6-0.2c-0.3,0-0.7-0.1-1-0.2l-2.6-1.1
						c-15.7-6.8-32-13.9-47.3-22.3c-14-7.7-28.6-16.5-40.5-28.6c-16.2-16.5-27.6-39.5-32-65c-3.8-21.8-2.9-46.1,2.8-72.1
						c11.9-55,39.3-104.8,79.4-143.8c5.6-5.5,13.3-11.7,22.5-10c10.4,2,15.7,13.4,14.6,22.9c-1,9-6.2,16.3-10.7,22.8l-29.4,41.8
						c-2.2,3.1-3.6,7-3.6,9.4c15.6-11.6,29.3-26.1,42.7-40.1c13.7-14.5,27.8-29.3,44.1-41.5c46.4-34.5,111.1-48,197.8-41.2
						c41.5,3.3,102.2,11.3,150.8,43.8c48.6,32.4,76.5,87.2,69.3,136.4c-2.4,16.5-8.4,30.8-17.3,41.4c-12.7,15.2-41.1,25-51.6,23
						c-3.8-1.6-4.8-3.8-5-5.4c-0.6-4.8,4-8.7,11.5-14.7l0.7-0.5c1.7-1.4,3.3-2.7,4.4-3.7c15.9-15.4,25.3-37.8,25.2-60
						c-0.2-36.9-24.2-67.3-62.5-79.4c-9.5-3-17.2-4-24.1-3.1c-8.2,1.1-15.1,5.3-18.7,11.1c-1,1.7-1,2.4-1,2.7c0.1,0.4,0.4,1,1,1.8
						c3.6,4.8,9.1,8.1,14.9,11.6c7.2,4.3,14.6,8.8,19,16.5c6.2,10.9,4.6,25.9-4.5,41.2c-15.6,26.3-41.3,43.4-66.2,59.9
						c-18.2,12.1-37.1,24.6-51.6,40.6c-4.3,4.7-9.4,11.1-11.2,18.4c-1.4,5.7-0.6,13.3,4.5,17.5c5.1,4.1,13.1,4.1,21.6,4h1.6
						c14.7,0,30.2-0.5,43.8-6.3c2.4-1,4.8-2.2,7.2-3.4c2.9-1.4,5.8-2.9,8.7-4.1c13.1-5.2,27.5-5.6,40.2-6l123.6-3.3
						c5.5-0.2,12.3-0.3,18.5,2.2c5.1,2.1,9,5.6,12.8,9c2.2,2,4.1,3.7,6,5c5.2,3.7,11.3,5.9,17.7,8.1c7.2,2.6,14.6,5.2,20.9,10.1
						c10.4,8.1,16.3,21.7,14.9,34.8c-0.7,7-4.3,15.4-12.3,18l0,0c-3.2,1-6.5,0.9-9.3,0.6c-2.7-0.2-5.4-0.6-8.1-0.9l-1.4-0.2
						c-10.1-1.2-19.9-2.4-29.1-0.6c-1.7,0.3-3.3,0.8-5,1.2l-0.8,0.2c-3.9,1-8,2.1-12.3,2.3
						C1181.2,1864.7,1180.9,1864.7,1180.5,1864.7z M1064.3,1816c22.3,0,44.5,2,66.2,4c7.2,0.6,14.6,1.3,21.4,4.3
						c5.9,2.7,12.6,8.3,13.9,16.2c0.2,1.5,0.3,3.1,0.3,4.7c0,2.4,0.1,4.9,1,7.2c2.2,5.5,8.7,7.4,13.5,7.4l0.6,0
						c3.9-0.1,7.6-1.1,11.2-2.1l0.8-0.2c1.7-0.5,3.5-0.9,5.2-1.3c9.9-2,20.2-0.7,30.1,0.5l1.9,0.2c2.7,0.3,5.4,0.6,8,0.9
						c2.5,0.2,5,0.4,7.4-0.4l0,0c5.7-1.8,8.3-8.4,8.9-13.8c1.2-11.5-3.9-23.4-13-30.5c-5.7-4.4-12.7-6.9-19.5-9.3
						c-6.5-2.3-13.3-4.7-19-8.8c-2.1-1.5-4.1-3.3-6-5c-3.9-3.5-7.4-6.7-11.8-8.5c-5.2-2.1-11.2-2-16.5-1.8l-123.6,3.3
						c-12.3,0.3-26.3,0.7-38.5,5.6c-2.8,1.1-5.6,2.5-8.2,3.8c-2.6,1.3-5,2.6-7.6,3.6c-14.5,6.1-30.5,6.7-45.7,6.7h-1.6
						c-9,0-18.2,0.1-24.7-5.2c-6.7-5.5-8-15.2-6.2-22.4c2.1-8.4,7.7-15.4,12.4-20.5c15-16.5,34.1-29.1,52.5-41.4
						c24.4-16.2,49.6-33,64.7-58.3c8.2-13.8,9.8-27,4.5-36.3c-3.8-6.6-10.6-10.7-17.2-14.7c-6.3-3.8-12.2-7.3-16.3-12.9
						c-0.7-1-1.6-2.4-1.9-3.9c-0.3-1.8,0.2-3.7,1.6-6c4.3-7.1,12.6-12.1,22.2-13.4c7.6-1,16,0,26.2,3.2c40.4,12.7,65.7,45,65.9,84.1
						c0.1,23.4-9.8,47.2-26.6,63.5c-1.2,1.1-2.9,2.5-4.7,4l-0.7,0.6c-4.5,3.5-10,8-9.7,10.3c0,0.2,0.1,0.8,1.6,1.4
						c8.6,1.8,35.3-8.2,46.4-21.4c8.3-10,14-23.4,16.2-39c6.8-47.4-20.2-100.3-67.2-131.7c-47.6-31.8-107.5-39.7-148.5-42.9
						c-85.4-6.8-149,6.5-194.5,40.3c-16,11.9-29.9,26.6-43.4,40.8c-14.3,15-28.9,30.4-45.8,42.6c-0.9,0.6-2.1,0.6-3-0.1
						c-1-0.8-1.7-2-2.1-3.3c-1.2-4.3,1.3-10.4,4.2-14.5l29.4-41.8c4.2-6,9-12.7,9.8-20.5c0.8-7.3-3-16.1-10.6-17.5
						c-7.1-1.4-13.4,4-18.2,8.7c-39.4,38.3-66.3,87.2-78,141.3c-5.5,25.4-6.4,49.1-2.7,70.3c4.3,24.5,15.2,46.7,30.7,62.4
						c11.5,11.7,25.7,20.3,39.4,27.8c15.1,8.3,31.2,15.3,46.8,22.1l2.2,1l192.1,0.2c12.1,0,23.5-5.7,34.6-11.1
						c6.5-3.2,12.9-6.4,19.4-8.5c25.9-8.5,52.7-17.3,80.1-21.2C1037.8,1816.7,1051,1816,1064.3,1816z M1798.9,1783.5
						c-1.4,0-2.8-0.3-4-0.9c-3-1.5-5.7-3.6-7.8-5.4c-15.3-12.5-30.8-25.7-45.8-39.2c-26.2-23.6-51.8-48.6-76.1-74.3
						c-0.7-0.7-67.5-71.6-67.3-76.3l0-0.8c0-0.6,0.3-1.2,0.8-1.7l0.6-0.6l23-20.9c0.9-0.8,2.3-0.8,3.2-0.1l1.3,1.1
						c37.6,30.7,70.1,67.9,101.4,103.8c24.6,28.2,49.9,57.2,77.5,82.9l0.6,0.6c2.7,2.5,5.7,5.3,8.3,8.6c3.6,4.6,0.9,11.1-2.8,15.7
						c0,0,0,0,0,0C1808.1,1780.7,1803.2,1783.5,1798.9,1783.5z M1603.2,1587.6c5.9,8.5,59,65.8,65.7,72.9
						c24.2,25.6,49.7,50.6,75.8,74c15,13.4,30.3,26.6,45.6,39c2,1.6,4.3,3.5,6.8,4.8c2.9,1.4,7.6-1,11.1-5.3l0,0
						c2.6-3.2,4.4-7.4,2.7-9.6c-2.3-3-5.2-5.7-7.8-8l-0.6-0.6c-27.8-25.9-53.2-54.9-77.7-83.1c-31.3-35.8-63.4-72.7-100.6-103.1
						L1603.2,1587.6z M1810,1774.5L1810,1774.5L1810,1774.5z M1134.9,1453.4c-3.1,0-7.1-0.3-10.6-2.7c-3-2.1-5-5.4-5.5-9.3
						c-0.6-4.8,0.9-10.1,4.1-13.9c4.8-5.7,12.2-8.3,18.1-10.4c27.6-9.7,62.8-24,89.4-49.2c26.9-25.4,40.7-58.8,37-89.5
						c-3.8-31.4-24.5-57.7-47.2-84.1C1081.6,1032.9,798.5,722,786.9,714.9c-5.3-1.9-9.8-2.5-12.1-1.3c-0.7,0.4-1.5,1-2.1,3
						c-1.6,6.3,4.3,12.8,10.3,18.4c47.3,44,91.2,92.3,130.7,143.4c5,6.5,6.1,12.2,3,16.7c-2,3-5.2,4.2-7.3,5L846.1,924
						c-5.8,2.2-13.6,5.1-21.5,3.7c-9.3-1.7-16.1-9-21-14.3c-31-33.4-62-66.9-92.9-100.4c-4.6-5-9.9-10.7-12.9-17.9
						c-4.3-10.5-2.8-21.9-1.1-30.6c9.1-44.7,38.7-83.9,79.3-104.7l1.3-0.7c0.9-0.5,2.1-0.3,2.9,0.5l1,1
						c56,56.7,247.5,263.2,329.2,351.4l25,26.9c33.6,36.2,68,73.6,102.1,111c20.7,22.7,44.2,48.4,60.9,77.8
						c13,22.9,27.4,58.3,22,96.6h0c-5.3,38-30.6,74.4-67.6,97.4c-30.9,19.2-69.6,29.9-115.2,31.8
						C1136.6,1453.4,1135.8,1453.4,1134.9,1453.4z M777.9,708.1c3.1,0,6.7,0.8,11,2.4c12.4,7,304.3,328.4,435,480.5
						c23.2,27,44.4,54,48.4,86.7c3.9,32.2-10.5,67.2-38.5,93.6c-27.4,25.8-63.1,40.4-91.2,50.3c-5.6,2-12,4.2-15.9,8.9
						c-2.3,2.7-3.4,6.6-3,10.1c0.3,2.6,1.6,4.7,3.4,6c1.9,1.3,4.2,1.9,7.8,1.9c0.8,0,1.6,0,2.3-0.1c44.8-1.9,82.7-12.4,112.9-31.1
						c35.8-22.2,60.2-57.3,65.4-93.9h0c5.2-37-8.8-71.3-21.4-93.5c-16.4-28.9-39.7-54.4-60.2-76.9c-34.1-37.4-68.4-74.7-102.1-111
						l-24.9-26.9c-81.6-88-272.6-294-328.9-351.1c-39.1,20.2-67.7,58-76.4,101.2c-1.6,8.1-3,18.6,0.8,27.8c2.6,6.4,7.6,11.7,12,16.4
						c31,33.5,61.9,67,92.9,100.4c4.5,4.8,10.6,11.4,18.3,12.8c6.5,1.2,13.4-1.4,18.9-3.5l63.3-23.9c1.7-0.6,3.8-1.4,5-3.1
						c1.7-2.6,0.8-6.2-2.9-10.9c-39.3-50.9-83.1-98.9-130.2-142.8c-7-6.6-13.9-14.4-11.7-23.2c0.8-2.9,2.3-5,4.6-6.2
						C774,708.5,775.8,708.1,777.9,708.1z M1317.9,1323.8L1317.9,1323.8L1317.9,1323.8z M742,1453.2c-6.9,0-13.5-0.2-19.6-0.4
						c-54.4-2-97.3-10-135.2-25.3l0,0c-46.5-18.8-84.2-49.5-106.3-86.6l-1.6-2.7c-0.4-0.7-0.5-1.6-0.1-2.3c0.4-0.7,1.1-1.2,1.9-1.3
						l3.1-0.3c62.2-5.9,125-14.8,186.6-26.5c28.7-5.5,56.2-11.7,78.3-27.5c-9-18.5-16-37.9-20.7-57.9c-33.6,1-67-6.8-99.2-14
						c-29.1-6.5-59.2-13.2-89-13.8c-3.8-0.3-9.6,0.6-10.3,3.5c-0.3,1.1,0.2,2.7,1.3,4.4c5.3,8.6,16.8,12,28.6,14.3
						c44.6,8.9,90.3,13.3,135.8,13.3h1.6c1.2,0,2.2,0.8,2.4,1.9l0.3,1.6c3,14.4,4.1,29.2,3.3,43.9l-0.1,1.8
						c-0.1,1.3-1.1,2.3-2.4,2.3l-1.8,0c-25.3,0.5-50.9,6-75.6,11.3l-6.2,1.3c-28.7,6.1-58.7,10.7-83.1-5.8
						c-5.8-3.9-11.4-8.9-17.8-15.9c-29.8-32.8-44.4-75-39.1-112.9c0.4-2.5,0.9-5.3,3-7.7c3.5-3.9,9.1-4.5,16.6-1.7
						c67.1,24.6,140.5,35.4,212.3,31.4c2.5-0.1,4.5-0.3,5.8-1.2c1.4-0.8,2.5-2.6,3.6-4.7c4.2-7.4,28-57.2,30.9-68.7l-165.9-76.4
						c-5.6-2.6-11.9-5.5-18.1-5.5c-5.6,0.2-11.5,3.3-12.3,8.2c-1.1,6.9,7.6,13,13,16c22.4,12.6,47.3,21.5,71.4,30
						c27.8,9.9,56.5,20,81.9,36.1l1.4,0.9c1,0.6,1.4,1.9,0.9,3l-16.4,40.2c-0.6,1.5-1.6,3.8-3.7,5.4c-2.4,1.7-5.1,1.7-6.9,1.8
						c-38.3-0.8-77.5-1.7-115.1-11.4c-9.1-2.3-20.9-5.9-31.5-12.3c-22.8-13.8-38.6-40.3-42.2-70.9c-1.6-13.8-2.6-33.4,2.2-48.6
						c4-12.6,8.4-25.3,12.6-37.6c2.1-6.1,4.3-12.3,6.4-18.4l0.4-1.3c0.3-1,1.2-1.6,2.2-1.7l3.2-0.1c20.4,0,39,9.7,55.4,18.2
						l164,85.7c4.4,2.3,9.4,4.6,13.2,3.3c2.3-0.8,4.3-3.1,6.2-5.4c14.1-17.8,20.9-41.3,26.8-62c0.5-1.9,1.1-3.9,0.9-5.5
						c-0.4-3.1-4-5.7-8-8.4C767.8,975,747,955,726.9,935.6c-22.3-21.5-45.4-43.8-71.9-59.6c-3.2-1.9-7.5-1.1-10,1.8l-5.6,6.5
						c-1.4,1.7-2.1,3.8-1.9,6c0.2,2.2,1.2,4.1,2.8,5.5c36.3,30.1,75,58.1,114.9,83.3c6.7,4.2,15.8,10,18.7,19.6
						c1.9,6.3,0.7,13.1-3.5,19.1c-5.3,7.6-14.6,12.8-23.7,13.3c-13.8,0.9-26-5.6-40.3-14.2l-75.9-46.1c-12.5-7.6-25.5-15.5-36-26.6
						c-12.2-12.8-18.6-27.8-18.1-42.3c0.4-11.9,5.6-23.1,10.6-32.4c10.8-20.1,24.2-38.8,39.9-55.4c2.8-2.9,6.2-6.1,10.9-6.7
						c4.4-0.4,8.1,1.4,11.2,3.3c15.9,9.4,30.1,21.5,43.8,33.1l124.5,105.8c6.1,5.2,11.7,9.5,17.9,10.1c5.9,0.5,12.6-2.8,17.8-5.5
						l31.9-16.4c7.2-3.7,16.2-8.4,26-8.4c10,0.2,18.4,4.6,26.1,9.1c32.7,19,62.6,42.3,89.1,69.3c5.1,5.2,6.7,10,5,14.5
						c-1.3,3.3-4.3,5.6-8.6,6.8c-14.1,4-26.2-3.5-38-10.8c-5.9-3.6-11.8-7.3-17.7-9.3c-13.3-4.7-28.5-2-41.9,0.4
						c-2.5,0.4-4.8,0.9-5.9,2.1c-0.6,0.7-0.8,1.3-0.7,2.3c0.4,3.4,4.8,8.1,8.7,10.7c10.9,7.3,81.8,71,97.6,85.7
						c18.2,16.9,37.7,32.5,56.6,47.6c13.3,10.6,26.9,21.5,39.9,32.6c18.9,16.3,33.6,30.6,46.1,45.1c4,4.6,8.1,9.7,9.5,16.1
						c1.5,6.9-0.9,15.9-8.4,19.2c-4,1.7-8.2,1.3-11.8,0.7c-23.9-4.2-43.5-21.1-59.3-34.6l-210.2-180.2c-1.2,32.9-1.5,66.2-1,99
						l219.5,115.8c9,4.8,18.9,10.7,21.7,21.3c0.9,3.5,0.6,6.6-0.9,9c-3.2,5.2-9.9,4.9-12.3,4.8c-23.7-1.1-46.2-8.6-69.1-16.8
						c-81.2-29.2-161.1-64.4-237.6-104.6c3.9,44.2,24.2,86.9,56,117.8c1.2,1.1,2.3,2.1,3.3,2.6c1.7,0.8,4.3,0.7,6.5,0.6
						c65.2-2.4,130.5,3.5,194.3,17.4c11.4,2.5,23.6,6.5,28.7,17.3c2,4.1,1.9,8.3-0.2,11.3c-2.3,3.3-6.2,4.2-8.3,4.6
						c-43.7,9.5-90,5.7-134.7,2c-30.2-2.5-61.2-5-90.8-3.4c4.8,12,17.8,19.9,31,26.7c13.1,6.6,26.5,12.6,40,17.9
						c3.4,1.3,9.6,3.7,11.7,9.6c1.2,3.2,0.9,6.5-0.8,9.5c-3.3,5.8-10.9,9.1-16.5,10.2c-36.4,7.3-76.6,0.5-113.3-19.1
						c-13.5-7.2-26.6-16.1-39.1-26.6l-47.1-14c22.6,26.9,49.1,50,78.9,68.9l3.9,2.4c0.8,0.5,1.3,1.5,1.1,2.4c-0.2,1-0.9,1.8-1.8,2
						l-4.4,1.1C787.7,1450.9,766.7,1453.2,742,1453.2z M589.1,1422.9c37.3,15,79.8,23,133.6,24.9c6,0.2,12.5,0.4,19.4,0.4
						c23.8,0,44-2.1,61.8-6.5c-32.1-20.4-60.4-45.8-84.2-75.5c-0.7-0.8-0.7-2-0.1-2.9c0.6-0.9,1.7-1.3,2.7-1l55.2,16.5
						c0.3,0.1,0.6,0.3,0.9,0.5c12.3,10.4,25.3,19.2,38.6,26.3c35.7,19,74.8,25.7,110.1,18.6c4.7-0.9,10.9-3.8,13.1-7.8
						c1-1.8,1.2-3.6,0.5-5.5c-1.3-3.7-5.9-5.5-8.8-6.6c-13.7-5.4-27.3-11.4-40.5-18.1c-14.5-7.3-28.7-16.1-33.9-30.5
						c-0.2-1-0.4-1.6-0.5-2.1c-0.2-0.7-0.1-1.5,0.4-2.1c0.4-0.6,1.1-1,1.8-1c30.8-2,63.1,0.7,94.3,3.2c44.6,3.7,90.6,7.5,133.5-1.9
						c2.1-0.5,4.2-1,5.3-2.6c1.1-1.5,1-3.9-0.2-6.4c-4.2-8.9-15.2-12.4-25.3-14.6c-63.4-13.8-128.4-19.6-193.1-17.2
						c-2.6,0.1-6,0.3-8.8-1.1c-1.7-0.8-3.1-2.1-4.6-3.5c-33.8-32.7-54.8-78.4-57.8-125.3c-0.1-0.9,0.4-1.7,1.1-2.2
						c0.7-0.5,1.7-0.5,2.5-0.1c77.5,40.9,158.5,76.7,240.9,106.3c22.5,8.1,44.6,15.5,67.6,16.5c4.3,0.2,6.7-0.6,7.9-2.5
						c0.8-1.3,0.9-3.1,0.3-5.2c-2.3-8.6-11.1-13.9-19.2-18.2l-220.8-116.5c-0.8-0.4-1.3-1.2-1.3-2.1c-0.6-35.1-0.2-70.7,1.2-105.8
						c0-0.9,0.6-1.8,1.5-2.1c0.8-0.4,1.8-0.2,2.6,0.4l214,183.5c15.4,13.2,34.5,29.6,57,33.5c2.8,0.5,6.1,0.8,8.9-0.4
						c5.1-2.2,6.7-8.7,5.6-13.7c-1.2-5.3-4.8-9.8-8.4-13.9c-12.4-14.3-26.9-28.4-45.6-44.6c-12.9-11.1-26.5-21.9-39.6-32.4
						c-19.2-15.3-38.8-31-57.1-48c-15.3-14.2-86.5-78.2-97-85.2c-5-3.3-10.3-9-10.9-14.2c-0.3-2.4,0.4-4.4,2-6.1
						c2.1-2.2,5.2-3,8.5-3.6c14-2.5,29.9-5.4,44.4-0.2c6.4,2.3,12.5,6,18.4,9.7c11,6.8,22.3,13.7,34.3,10.4c2-0.6,4.5-1.7,5.4-4
						c1.5-3.7-2.6-7.9-3.9-9.2c-26.1-26.7-55.8-49.7-88.1-68.5c-7.2-4.2-14.9-8.3-23.3-8.4c-9,0-17.4,4.3-24.2,7.8l-31.8,16.4
						c-5.9,3-13.3,6.8-20.6,6.1c-7.7-0.7-13.9-5.5-20.7-11.2L689.6,847.6c-13.6-11.5-27.6-23.4-43.1-32.6c-2.6-1.5-5.4-2.9-8.2-2.7
						c-3.1,0.4-5.5,2.6-7.9,5.2c-15.4,16.3-28.6,34.6-39.2,54.4c-4.7,8.8-9.6,19.3-10,30.2c-0.5,13.2,5.5,26.9,16.7,38.8
						c10.1,10.6,22.8,18.3,35,25.7l75.9,46.1c13.5,8.2,25.1,14.5,37.4,13.5c7.7-0.4,15.6-4.8,20-11.2c3.3-4.7,4.3-10,2.9-14.9
						c-2.4-7.9-10.6-13.1-16.6-16.9c-40.1-25.3-78.9-53.4-115.3-83.7c-2.7-2.2-4.3-5.3-4.6-8.8c-0.3-3.5,0.8-6.9,3.1-9.5l5.6-6.5
						c4-4.7,11-5.9,16.2-2.8c27,16.2,50.3,38.6,72.8,60.3c20,19.3,40.6,39.1,63.8,54.7c4.9,3.3,9.4,6.6,10.1,11.8
						c0.4,2.6-0.4,5.3-1,7.4c-6.1,21.2-12.9,45.1-27.7,63.7c-2.3,2.9-4.9,5.7-8.4,7c-5.7,2-11.8-0.8-17.1-3.6l-164-85.7
						c-15.9-8.3-33.9-17.7-53.1-17.7l-1.3,0c-2.1,6-4.1,12-6.2,18c-4.3,12.3-8.7,24.9-12.6,37.5c-4.5,14.3-3.6,33.2-2,46.5
						c3.4,29.1,18.3,54.2,39.9,67.3c10.1,6.1,21.5,9.5,30.2,11.8c37.1,9.6,76,10.4,113.6,11.2c1.7,0,3.2,0,4.3-0.8
						c1-0.7,1.6-2.1,2-3.2l15.6-38.3c-24.8-15.7-53.1-25.7-80.4-35.4c-24.4-8.7-49.5-17.6-72.3-30.4c-11.3-6.4-16.6-13.7-15.4-21.1
						c1.2-7.4,9.4-12.1,16.5-12.3c0,0,0.6,0,0.7,0c7.2,0,14.1,3.2,20.2,5.9l167.6,77.2c0.9,0.4,1.5,1.4,1.4,2.4
						c-0.6,9-28.5,66.5-31.9,72.3c-1.5,2.6-3,5-5.3,6.4c-2.3,1.4-5,1.7-8.1,1.9c-72.5,4-146.5-6.9-214.3-31.7
						c-5.5-2.1-9.3-2-11.3,0.3c-1.2,1.3-1.5,3.2-1.8,5.1c-5.1,36.5,9.1,77.2,37.8,108.9c6.1,6.7,11.4,11.5,16.9,15.2
						c22.9,15.4,51.7,10.9,79.3,5l6.2-1.3c24.8-5.3,50.5-10.8,76.1-11.4c0.8-14-0.3-28-3.1-41.8c-45.7,0-91.5-4.5-136.3-13.4
						c-12.8-2.5-25.5-6.3-31.8-16.6c-1.8-2.9-2.4-5.7-1.8-8.1c1.6-6.5,10.3-7.6,15.3-7.2c30.2,0.6,60.5,7.4,89.7,13.9
						c32.6,7.3,66.2,14.8,100,13.8c0,0,0,0,0.1,0c1.1,0,2.1,0.8,2.4,1.9c4.8,20.9,12,41.3,21.6,60.6c0.5,1.1,0.2,2.3-0.7,3
						c-23.2,17.4-52,23.9-81.9,29.6c-61.5,11.7-124.2,20.6-186.3,26.5C507.1,1374.9,543.8,1404.7,589.1,1422.9L589.1,1422.9z
						 M1560.7,1180.4c-6.8,0-14-1.9-22.2-5.7c-9.4-4.4-17.9-10.3-24.2-15c-6.7-5-14.4-11.1-20.4-18.7c-8-10.1-13-22.6-14-35.4
						c-0.7-8.6,0.6-15.8,4-21.4c5.1-8.5,14.3-12.4,21-14.2c2.6-0.7,5.6-1.2,8.7-0.3c9.9,3,7.7,13.9,6.5,19.7
						c-0.3,1.4-0.5,2.5-0.6,3.5c-0.8,7.5,0.1,15.3,2.4,22.6c1.3,4.1,3.1,8.1,5.4,11.7c6.1,9.8,15.3,17.7,24.2,25.3
						c4.1,3.5,8.4,7.2,12.4,11l0,0c2.2,2.1,4.6,4.7,5.7,8.2c0.9,2.9,0.1,4.8-0.8,6c-1.1,1.6-2.9,2.5-5.4,2.6
						C1562.5,1180.4,1561.6,1180.4,1560.7,1180.4z M1510.1,1074.2c-1.4,0-2.7,0.3-4,0.6c-5.8,1.5-13.7,4.9-18,12
						c-2.8,4.7-3.9,10.9-3.3,18.4c1,11.9,5.6,23.5,13,32.8c5.7,7.2,13,13,19.5,17.8c6.1,4.5,14.3,10.3,23.4,14.5
						c8.4,3.9,15.5,5.6,22.4,5.1c0.4,0,1.4-0.1,1.8-0.6c0.3-0.4,0.3-0.9,0-1.7c-0.7-2.4-2.6-4.3-4.4-6.1l0,0
						c-3.9-3.8-8.1-7.4-12.2-10.8c-9.2-7.9-18.7-16-25.2-26.4c-2.5-4-4.4-8.3-5.9-12.8c-2.6-7.9-3.5-16.4-2.7-24.6
						c0.1-1.1,0.4-2.4,0.7-3.8c1.4-6.9,2.1-12.6-3.1-14.2C1511.5,1074.2,1510.8,1074.2,1510.1,1074.2z M1523.2,1006.2
						c-2,0-4-0.1-6-0.3c-8.5-0.8-15.1-3.1-20.2-6.9c-7.6-5.8-11.4-14.8-14.2-23.7l-0.8-2.4c-2.2-6.9-4.5-14-8.9-19.1
						c-4.1-4.8-11.8-8-17.1-4.9c-4.1,2.4-5.8,7.3-7.9,13.1c-2,5.4-4,11-8.3,15.4c-5.1,5.1-12.8,7.7-22.9,7.7
						c-15.5,0-35.8-6.4-42.6-24.1c-3-7.9-2.6-16.2-2.1-24.2c0.4-7.8,0.9-15.2-2-21.5c-5.7-12.7-22.7-16.9-38.6-19.3l-32-4.9
						c-8.5-1.3-17.3-3.1-22.7-10.3c-2.9-3.9-3.9-7.8-3.1-11.8c1.6-8.1,10.6-13.4,17.1-17.2c0,0,0.2-0.1,0.2-0.1
						c1.1-0.6,2.1-1.2,2.9-1.8c12.8-8.1,27.8-17.2,44.3-22.7c22.2-7.4,44-6.9,61.2,1.4c11,5.3,19.9,13.6,28.5,21.6
						c6.6,6.2,13.5,12.6,21.2,17.3c25,15.4,56.8,13.2,89.9,9.3c17.8-2.1,36.2-4.3,54.1,0.8c4.7,1.3,9.2,3.1,13.5,4.9
						c4,1.6,7.7,3.1,11.3,4.2c10,3.1,20.6,4.1,30.9,5l69.9,6.4c15.9,1.5,20.2,8.4,21,14c0.5,4.5-1.4,8.9-5.4,12.3
						c-1.4,1.2-2.9,2.5-4.9,3.2c-2.3,0.8-4.6,1.3-6.6,1.7c-9.6,1.8-19.2,0.8-25.6,0c-3.7-0.5-7.5-1.2-11.2-1.8
						c-6.6-1.1-13.3-2.3-20-2.7c-1.5-0.1-2.8-0.1-3.7,0.2c-0.6,0.2-0.8,0.5-0.9,0.6c0,0.1,0.5,1,1.6,1.9c3,2.5,7.1,3.9,11.3,5.4
						c2.8,1,5.8,2,8.6,3.5c5.5,2.8,8.7,6.7,9,11.3c0.4,5.1-2.7,9.9-8.9,13.4c-12.3,7.1-28,8.4-40.9,3.1c-7.5-3-14.5-8.1-21.9-16.1
						c-2.2-2.4-4.5-5-7.4-8.5c-2.2-2.6-4.6-4.9-7.1-7.4c-6.8-6.5-12.4-11-18-14.5c-18.2-11.5-42.4-15.8-68.3-12.1
						c-3.5,0.5-7.4,1.2-9.9,3.3c-3.9,3.5-3.3,10.6-0.1,14.8c4.3,5.5,11.6,7.5,17.1,8.2c4.1,0.5,8.4,0.6,12.6,0.6
						c3.4,0,6.7,0.1,10,0.3c9.8,0.7,19.2,3.2,28.1,7.5c3.8,1.9,8.5,4.6,10.8,9.5c2.4,5.2,1.7,11.3-2.2,18.6
						C1574.4,991,1549.1,1006.2,1523.2,1006.2z M1460.9,942.8c6,0,12.2,3.3,16.1,7.9c5,5.9,7.4,13.4,9.8,20.7l0.8,2.5
						c2.6,8.1,6,16.3,12.5,21.3c4.3,3.3,10.1,5.3,17.6,6c26,2.3,52.4-12.3,64.2-34.9c3.1-5.9,3.8-10.6,2.1-14.3
						c-1.7-3.5-5.4-5.7-8.5-7.2c-8.3-4-17.2-6.3-26.3-7c-3.2-0.2-6.4-0.3-9.7-0.3c-4.4,0-8.8-0.1-13.2-0.6
						c-6.4-0.8-15-3.3-20.3-10.1c-4.6-6-5.4-16,0.7-21.4c3.5-3.1,8.2-3.9,12.4-4.5c27-3.8,52.4,0.8,71.6,12.8
						c5.9,3.7,11.8,8.5,18.6,15c2.8,2.7,5.4,5.1,7.7,8c2.8,3.4,5,5.9,7.2,8.3c6.9,7.4,13.3,12.1,20.1,14.9
						c11.5,4.7,25.6,3.6,36.6-2.8c4.5-2.6,6.8-5.7,6.5-8.8c-0.3-3.5-3.6-5.9-6.3-7.3c-2.5-1.3-5.3-2.3-8-3.2
						c-4.5-1.6-9.1-3.2-12.8-6.3c-1.5-1.3-3.9-3.8-3.2-6.8c0.4-1.8,1.9-3.3,4-4c1.8-0.6,3.6-0.6,5.6-0.5c7,0.3,13.9,1.6,20.6,2.7
						c3.7,0.6,7.3,1.3,11,1.8c6,0.8,15.1,1.8,24,0.1c1.8-0.3,3.8-0.8,5.8-1.5c1.2-0.4,2.2-1.3,3.5-2.4c1.9-1.6,4.2-4.3,3.8-7.9
						c-0.9-6.9-9.5-9.1-16.6-9.7l-69.8-6.4c-10.6-1-21.5-2-31.9-5.2c-3.8-1.2-7.6-2.7-11.2-4.1c-4.7-1.9-9.1-3.6-13.5-4.9
						c-17-4.8-34.8-2.7-52.1-0.6c-34.1,4-66.8,6.2-93.1-10c-8.1-5-15.1-11.5-21.9-17.9c-8.3-7.8-17-15.8-27.3-20.8
						c-16.1-7.7-36.6-8.2-57.6-1.2c-16,5.3-30.7,14.2-43.2,22.2c-0.9,0.6-1.9,1.2-3.1,1.9l-0.2,0.1c-5.8,3.4-13.6,8-14.8,14
						c-0.5,2.6,0.2,5.2,2.3,7.9c4.2,5.7,11.9,7.2,19.5,8.4l32,4.9c17.2,2.6,35.6,7.3,42.3,22.1c3.3,7.4,2.9,15.4,2.4,23.8
						c-0.4,7.5-0.9,15.3,1.8,22.2c5.9,15.4,24.1,20.9,37.8,21c9,0,15.6-2.1,19.7-6.2c3.5-3.5,5.4-8.6,7.1-13.5
						c2.2-6.1,4.5-12.4,10.1-15.7C1455.9,943.3,1458.4,942.8,1460.9,942.8z M1292.4,853.8L1292.4,853.8L1292.4,853.8z"/>
				</g>
			</g>
		</g>
		<g>
			<path class="st0" d="M1642.9,1354.5c0,0,24.1,10.1,38.6,36.1c0,0,15-30.6-1.6-36.1S1642.9,1354.5,1642.9,1354.5z"/>
			<path class="st0" d="M1681.8,1401.2l-4.5-8.1c-13.5-24.1-36.1-33.9-36.3-34l-13-5.5l13.6-3.7c0.9-0.2,22-5.8,39.8,0.1
				c4.5,1.5,7.8,4.5,9.6,8.8c5.2,12.4-4,32-5.1,34.2L1681.8,1401.2z M1657.3,1357.1c7,4.8,15.7,12.2,23.3,22.8
				c2-6.3,3.3-13.4,1.5-17.5c-0.7-1.7-1.8-2.7-3.7-3.3C1671.4,1356.8,1663.7,1356.6,1657.3,1357.1z"/>
		</g>
	</g>
	<g>
		<g>
			<path class="st0" d="M663.5,2445.6c-49.2,33.8-99.9,49.7-160,49.7c-113.6,0-214.1-73.2-214.1-190.6
				c0-119.6,121.2-180.8,196.6-180.8c83,0,146.3,20.8,176.9,45.3l-15.3,46.4c-1.1,3.3-3.3,7.6-5.5,7.6c-1.6,0-1.6-3.8-4.9-11.5
				c-19.1-45.3-77.5-74.3-134.3-74.3c-108.7,0-155.1,75.4-155.1,174.7c0,106.5,61.2,169.3,161.1,169.3c41,0,100.5-12.6,102.1-57.9
				v-46.4c0-55.7-8.2-56.2-62.3-68.8c-0.5,0-1.6-1.1-1.6-2.2c0-3.3,4.4-3.3,10.9-3.3c26.2,0,52.4,2.2,78.6,2.2
				c10.4,0,26.2-2.2,47-2.2c7.1,0,11.5,0,11.5,4.3c0,1.6-1.6,2.7-4.9,3.3c-15.8,4.9-26.8,10.9-26.8,28.9V2445.6z"/>
			<path class="st0" d="M503.5,2496.3c-57.3,0-110.7-18.3-150.3-51.5c-42.4-35.5-64.8-84-64.8-140.1c0-68.1,38.3-111.5,70.4-136
				c37.1-28.2,85.8-45.7,127.1-45.7c89.1,0,150.1,23.5,177.5,45.5l0.5,0.4l-0.2,0.6l-15.3,46.4c-0.7,1.9-3.1,8.3-6.4,8.3
				c-1.7,0-2.2-1.6-3.1-4.5c-0.6-1.8-1.4-4.3-2.7-7.5c-18-42.7-74.1-73.7-133.4-73.7c-97.9,0-154.1,63.3-154.1,173.8
				c0,105.4,59.9,168.3,160.1,168.3c45.7,0,99.6-14.9,101.1-56.9v-46.4c0-53.6-7.7-55.4-57.8-67l-3.7-0.9c0,0,0,0,0,0
				c-1,0-2.4-1.7-2.4-3.1c0-4.2,5-4.2,11.9-4.2c13.1,0,26.5,0.6,39.4,1.1c12.9,0.5,26.2,1.1,39.3,1.1c4.3,0,9.5-0.4,15.6-0.8
				c8.5-0.6,19.2-1.4,31.4-1.4c7.2,0,12.4,0,12.4,5.3c0,2.2-1.9,3.6-5.7,4.3c-16.8,5.2-25.9,11.2-25.9,28v106.5l-0.4,0.3
				C614.6,2480.4,563.6,2496.3,503.5,2496.3z M486,2124.9c-80,0-195.6,64-195.6,179.8c0,123.2,109.8,189.6,213.1,189.6
				c59.5,0,110.1-15.6,159-49.2v-105.4c0-17.9,10.1-24.5,27.4-29.9c2-0.3,4.2-1,4.2-2.3c0-3.1-2.7-3.4-10.5-3.4
				c-12.1,0-22.7,0.8-31.2,1.4c-6.1,0.4-11.4,0.8-15.7,0.8c-13.1,0-26.5-0.6-39.4-1.1c-12.9-0.5-26.2-1.1-39.3-1.1
				c-6.5,0-9.9,0.1-9.9,2.3c0,0.5,0.6,1.1,0.8,1.2l3.8,0.9c50.2,11.6,59.3,13.7,59.3,68.9v46.4c-1.6,43.5-56.5,58.9-103.1,58.9
				c-101.5,0-162.1-63.6-162.1-170.3c0-111.7,56.9-175.7,156.1-175.7c60.1,0,116.9,31.5,135.2,74.9c1.4,3.3,2.2,5.8,2.8,7.7
				c0.5,1.4,0.9,3,1.2,3.1c1.2,0,3.2-3.1,4.5-7l15.1-45.8C634.4,2147.9,574,2124.9,486,2124.9z"/>
		</g>
		<g>
			<path class="st0" d="M884.1,2386.6c0,43.7,4.9,85.7,27.3,92.8c3.8,1.1,8.7,2.7,8.7,4.4c0,1.1-4.4,2.2-10.9,2.2
				c-5.5,0-15.3-1.6-48.1-1.6c-41,0-53.5,1.6-55.7,1.6s-4.9-0.6-4.9-2.2c0-1.1,4.9-3.3,8.7-5.5c18.6-9.3,27.8-38.2,27.8-108.7
				v-181.3c0-17.5-3.3-39.9-21.3-47c-6-2.2-8.2-4.3-8.2-6s2.7-2.7,10.9-2.7h160.6c145.3,0,181.8,38.2,181.8,85.8
				c0,69.3-95,84.6-129.4,84.6v1.1c62.8,17.5,87.4,28.9,111.4,92.3c10.4,26.2,21.3,65.5,42.6,79.2c9.3,6,13.1,4.4,13.1,7.1
				c0,1.1-0.5,1.6-3.8,1.6h-62.8c-12,0-14.7-1.1-19.7-14.7c-12-33.3-28.9-80.8-40.4-105.9c-21.8-47.5-42.6-56.8-128.3-56.8h-59.5
				V2386.6z M884.1,2293.2h101c55.2,0,117.4-10.4,117.4-78.1c0-50.2-48.1-68.8-93.9-68.8H884.1V2293.2z"/>
			<path class="st0" d="M909.3,2487c-1.6,0-3.6-0.1-6.4-0.3c-6.9-0.5-18.5-1.3-41.7-1.3c-33.2,0-47.7,1.1-53.2,1.5
				c-1.3,0.1-2.1,0.2-2.5,0.2c-2.8,0-5.9-0.8-5.9-3.2c0-1.3,1.8-2.3,5.9-4.5c1.1-0.6,2.3-1.2,3.3-1.8c19.2-9.6,27.4-41.8,27.4-107.8
				v-181.3c0-25.1-7-40.6-20.7-46.1c-5.8-2.1-8.8-4.5-8.8-6.9c0-2.6,3.6-3.7,11.9-3.7h160.6c124.7,0,182.8,27.5,182.8,86.7
				c0,67.9-91.1,84.7-127.3,85.6c61.5,17.3,85.6,29.7,109.2,92.1c1.8,4.6,3.7,9.7,5.6,15c9.1,24.7,19.3,52.7,36.6,63.7
				c4.7,3,7.9,4,10,4.7c2.1,0.7,3.6,1.2,3.6,3.2c0,2.4-2.4,2.6-4.8,2.6h-62.8c-12.4,0-15.5-1.3-20.6-15.4l-2.5-7
				c-11.5-31.9-27.2-75.5-37.8-98.9c-21.7-47.3-42-56.2-127.4-56.2h-58.5v78.7c0,56.2,8.7,86.2,26.6,91.9c6.8,2,9.4,3.5,9.4,5.3
				C921.2,2486.7,912.1,2487,909.3,2487z M861.2,2483.4c23.3,0,34.9,0.8,41.8,1.3c2.7,0.2,4.7,0.3,6.2,0.3c5.7,0,9-0.8,9.9-1.4
				c-0.3-0.4-1.7-1.5-7.9-3.3c-19.1-6-28-35.8-28-93.8v-80.7h60.5c85.6,0,107.3,9.7,129.2,57.4c10.7,23.4,26.4,67.1,37.9,99l2.5,7
				c4.7,13.1,7,14.1,18.8,14.1h62.8c2.9,0,2.9-0.4,2.9-0.7c0-0.5-0.1-0.6-2.2-1.3c-2.1-0.7-5.6-1.8-10.4-4.9
				c-17.8-11.4-28.2-39.7-37.4-64.7c-1.9-5.3-3.8-10.3-5.6-14.9c-23.7-62.5-47.8-74.2-110.7-91.7l-0.7-0.2v-2.8h1
				c33.3,0,128.4-15.4,128.4-83.7c0-57.8-57.5-84.8-180.9-84.8H818.6c-9.7,0-9.9,1.6-9.9,1.8c0,1.1,2,3.1,7.6,5.1
				c14.6,5.7,21.9,21.9,21.9,47.9v181.3c0,67.7-8.2,99.5-28.4,109.5c-1,0.6-2.2,1.2-3.3,1.8c-1.9,1-4.6,2.4-4.9,3c0,0.4,1.6,1,4,1
				c0.4,0,1.2-0.1,2.4-0.2C813.4,2484.5,827.9,2483.4,861.2,2483.4z M985.2,2294.2h-102v-148.8h125.5c45.9,0,94.9,18.3,94.9,69.8
				C1103.6,2286,1036,2294.2,985.2,2294.2z M885.1,2292.2h100c50,0,116.4-8,116.4-77.1c0-50-48-67.8-93-67.8H885.1V2292.2z"/>
		</g>
		<g>
			<path class="st0" d="M1404.6,2314l-34.9,66.1c-10.9,20.2-24,48.6-24,69.9c0,9.3,5.5,18,13.6,24c6.6,4.9,15.3,6,15.3,9.3
				c0,1.6-3.3,2.2-8.2,2.2c-13.1,0-25.7-1.1-38.2-1.1c-13.1,0-26.8,1.1-39.9,1.1c-4.9,0-9.8,0-9.8-2.7c0-3.3,8.2-7.1,11.5-10.4
				c22.4-21.3,43.1-57.9,56.2-80.8l143.6-264.3c1.1-2.2,2.2-3.3,3.8-3.3h1.1c1.6,0,3.8,2.2,3.8,3.3l161.1,310.2
				c7.6,14.7,20.8,30,34.4,39.3c4.9,3.3,8.2,4.9,8.2,6s-0.6,2.7-5.5,2.7c-15.8,0-34.4-1.1-51.3-1.1c-16.9,0-39.9,1.1-55.2,1.1
				c-2.7,0-4.4-0.5-4.4-1.6c0-3.3,4.9-3.8,10.4-6.5c4.9-2.7,9.8-7.6,9.8-19.7c0-14.7-12-43.1-26.2-71.5l-35.5-72.1H1404.6z
				 M1477.2,2182.4l-66.1,118h127.8L1477.2,2182.4z"/>
			<path class="st0" d="M1696.8,2486.4c-7.8,0-16.1-0.2-24.8-0.5c-8.8-0.3-17.9-0.6-26.5-0.6c-8.7,0-19,0.3-28.9,0.6
				c-9.7,0.3-18.8,0.5-26.2,0.5c-3.5,0-5.3-0.9-5.3-2.6c0-3,2.8-4.1,6.4-5.5c1.4-0.5,2.9-1.1,4.5-1.9c4-2.2,9.3-6.6,9.3-18.8
				c0-12.5-8.8-36.4-26.1-71.1l-35.2-71.5h-138.6l-34.7,65.6c-15.9,29.4-23.9,52.7-23.9,69.4c0,8.6,4.8,17.1,13.3,23.2
				c2.8,2.1,6.1,3.5,8.9,4.7c3.8,1.6,6.8,2.9,6.8,5.4c0,2.8-4.6,3.1-9.2,3.1c-6.6,0-13.2-0.3-19.6-0.6c-6.1-0.3-12.5-0.5-18.7-0.5
				c-6.5,0-13.3,0.3-19.9,0.6c-6.6,0.3-13.4,0.5-20,0.5c-5.3,0-10.8,0-10.8-3.7c0-2.6,3.4-5,7.1-7.5c1.7-1.2,3.6-2.5,4.7-3.6
				c22-20.9,42.2-56.2,55.5-79.6l0.6-1l143.6-264.3c0.9-1.9,2.2-3.8,4.7-3.8h1.1c2.1,0,4.5,2.3,4.8,4l161,310
				c7.8,15.1,20.9,30,34.1,39c1.4,0.9,2.7,1.7,3.7,2.4c3.3,2.1,4.9,3.1,4.9,4.4C1703.2,2485.2,1701,2486.4,1696.8,2486.4z
				 M1645.4,2483.4c8.6,0,17.7,0.3,26.5,0.6c8.8,0.3,17,0.5,24.8,0.5c3,0,4.5-0.6,4.5-1.8c-0.2-0.4-2.1-1.6-4-2.7
				c-1.1-0.7-2.4-1.5-3.8-2.4c-13.5-9.2-26.8-24.4-34.7-39.7l-161.2-310.6c-0.1-0.6-1.7-2.3-2.9-2.3h-1.1c-0.9,0-1.8,0.5-2.9,2.7
				L1346.4,2393c-13.4,23.5-33.7,58.9-55.8,80c-1.2,1.2-3,2.5-4.9,3.8c-2.8,1.9-6.2,4.3-6.2,5.9c0,1.8,4.9,1.8,8.9,1.8
				c6.5,0,13.3-0.3,19.9-0.6c6.6-0.3,13.4-0.5,20-0.5c6.2,0,12.6,0.3,18.7,0.5c6.3,0.3,12.9,0.6,19.5,0.6c7.1,0,7.2-1.2,7.2-1.2
				c0-1.2-2.7-2.3-5.6-3.6c-2.8-1.2-6.3-2.7-9.3-4.9c-8.9-6.5-14-15.6-14-24.8c0-17,8.1-40.7,24.1-70.4l35.2-66.6h141l0.3,0.5
				l35.5,72.1c17.5,34.9,26.3,59.2,26.3,72c0,13.3-5.9,18.1-10.3,20.5c-1.7,0.8-3.3,1.5-4.7,2c-3.4,1.3-5.2,2.1-5.2,3.6
				c0,0,0.4,0.7,3.4,0.7c7.4,0,16.5-0.3,26.2-0.5C1626.4,2483.7,1636.7,2483.4,1645.4,2483.4z M1540.6,2301.3h-131.1l0.8-1.4
				l67-119.5L1540.6,2301.3z M1412.8,2299.3h124.5l-60.1-114.9L1412.8,2299.3z"/>
		</g>
		<g>
			<path class="st0" d="M1829.5,2198.2c-0.5-29-4.4-49.2-29.5-57.9c-2.7-1.1-4.9-2.7-4.9-3.8c0-2.2,1.1-3.8,7.1-3.8
				c5.5,0,27.3,2.2,40.4,2.2c13.7,0,29.5-0.6,41-1.1c19.7,27.9,42.6,53,66.6,77l181.8,193.9v-182.4c0-46.4-15.8-69.3-30.6-78.1
				c-7.1-3.8-12.6-3.8-12.6-6.6s3.3-4.9,9.3-4.9c8.2,0,31.7,2.2,42.6,2.2c11.5,0,26.2-2.2,37.7-2.2c7.6,0,9.3,2.7,9.3,4.4
				c0,1.6-2.7,3.3-8.7,6c-13.6,5.5-29.5,20.2-29.5,79.2v221.2c0,28.9-1.6,51.9-5.5,51.9h-1.1c-5.5,0-12-12.6-45.9-51.3
				c-66.6-76.5-164.9-186.8-250.1-269.2V2397c0,55.7,15.8,72.1,27.9,79.2c7.6,4.9,11.5,4.9,11.5,7.6c0,1.6-1.6,2.2-4.4,2.2
				c-6.5,0-24-1.6-43.7-1.6c-11.5,0-41.5,1.6-48.1,1.6c-3.8,0-6-0.6-6-2.2c0-3.3,13.6-5.5,21.8-12.6c17.5-15.3,23.5-37.1,23.5-85.7
				V2198.2z"/>
			<path class="st0" d="M2144,2496.3h-1.1c-3.7,0-7.2-4.3-17.4-16.9c-6.6-8.1-15.6-19.3-29.2-34.8
				c-99.4-114.1-182.9-204.1-248.4-267.6V2397c0,55.7,15.6,71.4,27.4,78.3c3.1,1.9,5.5,3.1,7.3,4c2.9,1.4,4.7,2.2,4.7,4.5
				c0,3.2-4,3.2-5.3,3.2c-2.4,0-6.3-0.2-11.2-0.5c-8.5-0.5-20-1.1-32.5-1.1c-6.5,0-18.9,0.5-29.8,1c-8.3,0.3-15.4,0.6-18.2,0.6
				c-2.1,0-7,0-7-3.2c0-2.2,3.2-3.6,8-5.6c4.5-1.9,10-4.2,14.1-7.7c17.3-15.1,23.1-36.6,23.1-85v-187.3c-0.6-30.6-5.4-48.8-28.8-57
				c-2.6-1-5.6-2.9-5.6-4.7c0-3.4,2.4-4.8,8.1-4.8c2.2,0,6.7,0.3,12.5,0.7c8.9,0.6,19.9,1.4,27.9,1.4c15.3,0,32.2-0.7,40.9-1.1
				l0.5,0l0.3,0.4c17.1,24.3,37.7,48,66.5,76.9l180.2,192.1v-179.9c0-53.6-21.1-71.9-30.1-77.2c-2.8-1.5-5.4-2.4-7.5-3.2
				c-3.2-1.1-5.5-1.9-5.5-4.2c0-3.6,4-5.9,10.3-5.9c3.8,0,11,0.5,18.6,1c9,0.6,18.2,1.2,24,1.2c5.7,0,12.3-0.6,18.8-1.1
				c6.5-0.5,13.2-1.1,18.9-1.1c9.5,0,10.3,4.1,10.3,5.4c0,2.3-3,4-9.3,6.9c-12.4,5-28.9,18.5-28.9,78.3v221.2
				C2150.5,2496.3,2145.6,2496.3,2144,2496.3z M1846,2172.4l1.7,1.6c65.7,63.6,149.9,154.2,250.2,269.3
				c13.5,15.5,22.6,26.7,29.2,34.8c9.3,11.4,13.1,16.2,15.9,16.2h1.1c1.5-0.3,4.5-11.4,4.5-50.9v-221.2c0-61,17.2-74.9,30.1-80.1
				c2.4-1.1,8.1-3.7,8.1-5.1c0-1.6-2.2-3.4-8.3-3.4c-5.7,0-12.3,0.6-18.8,1.1c-6.5,0.5-13.2,1.1-18.9,1.1c-5.9,0-15.2-0.6-24.2-1.2
				c-7.5-0.5-14.7-1-18.4-1c-4.9,0-8.3,1.6-8.3,3.9c0,0.9,1.5,1.4,4.2,2.4c2.1,0.8,4.8,1.7,7.8,3.3c9.4,5.6,31.1,24.3,31.1,78.9
				v184.9l-1.7-1.8l-181.8-193.9c-28.7-28.7-49.3-52.4-66.4-76.7c-8.9,0.4-25.4,1.1-40.5,1.1c-8,0-19.1-0.8-28-1.4
				c-5.5-0.4-10.3-0.7-12.4-0.7c-6.1,0-6.1,1.7-6.1,2.9c0.1,0.4,1.4,1.7,4.3,2.9c24.5,8.5,29.5,27.3,30.1,58.8v187.3
				c0,49.1-6,70.9-23.8,86.5c-4.3,3.8-10.1,6.1-14.7,8.1c-2.9,1.2-6.8,2.8-6.8,3.8c0,0.5,0.7,1.2,5,1.2c2.8,0,9.9-0.3,18.1-0.6
				c11-0.5,23.4-1,29.9-1c12.5,0,24.1,0.6,32.6,1.1c4.9,0.3,8.7,0.5,11.1,0.5c3.4,0,3.4-0.9,3.4-1.2c0-0.9-0.7-1.4-3.5-2.7
				c-1.8-0.9-4.3-2.1-7.5-4.1c-12.1-7.2-28.3-23.3-28.3-80V2172.4z"/>
		</g>
		<g>
			<path class="st0" d="M2321.6,2208c0-49.2-7.1-58.4-20.8-65c-3.3-2.2-6-3.3-6-6c0-2.2,1.6-4.4,16.4-4.4h167.6
				c135.4,0,203.1,81.9,203.1,169.8c0,99.9-71,173.1-180.2,181.8c-13.6,1.1-27.8,1.6-42,1.6c-14.2,0-38.8-1.6-63.9-1.6h-62.2
				c-11.5,0-21.3,0.6-28.9,1.1c-7.1,0.6-12.6,1.1-15.8,1.1c-2.2,0-3.8-0.6-3.8-1.6c0-2.2,2.2-3.3,6-5.5
				c28.9-16.4,30.6-28.9,30.6-85.7V2208z M2368.5,2383.9c0,67.7,10.4,83.6,33.9,85.7c22.4,2.2,37.7,2.7,50.8,2.7
				c13.6,0,27.3-0.5,41-1.6c77.5-6.5,129.4-47.5,129.4-168.7c0-114.7-53-155.6-163.3-155.6h-91.7V2383.9z"/>
			<path class="st0" d="M2288.8,2487.5c-3,0-4.8-1-4.8-2.6c0-2.6,2.3-3.9,5.7-5.9l0.8-0.4c27.9-15.8,30.1-27.3,30.1-84.9V2208
				c0-50.7-7.6-58.1-20.2-64.1c-0.7-0.5-1.3-0.8-1.8-1.1c-2.5-1.6-4.7-3-4.7-5.7c0-3.3,2.9-5.4,17.4-5.4h167.6
				c63.4,0,116.3,18,153,52.2c33,30.6,51.1,72.7,51.1,118.6c0,49.5-17.1,93-49.4,125.8c-32.5,33-78,52.7-131.7,57
				c-13.7,1.1-27.9,1.6-42.1,1.6c-6.1,0-14.1-0.3-23.3-0.6c-12.3-0.5-26.3-1-40.6-1h-62.2c-12,0-22.2,0.6-28.9,1.1
				c-1.9,0.2-3.7,0.3-5.3,0.4C2294.8,2487.2,2291.2,2487.5,2288.8,2487.5z M2311.2,2133.6c-15.4,0-15.4,2.5-15.4,3.4
				c0,1.6,1.3,2.5,3.8,4.1c0.6,0.3,1.1,0.7,1.8,1.1c14.6,7,21.2,18.2,21.2,65.8v185.7c0,55.8-1.1,69.7-31.1,86.6l-0.7,0.4
				c-3.3,1.9-4.8,2.8-4.8,4.2c0,0.1,0.7,0.7,2.9,0.7c2.4,0,5.9-0.3,10.4-0.7c1.7-0.2,3.4-0.3,5.3-0.4c6.7-0.5,17-1.1,29-1.1h62.2
				c14.4,0,28.4,0.5,40.7,1c9.2,0.3,17.1,0.6,23.2,0.6c14.2,0,28.3-0.6,42-1.6c107.3-8.6,179.3-81.3,179.3-180.9
				c0-84.1-62.5-168.9-202.2-168.9H2311.2z M2453.2,2473.3c-10.7,0-26.2-0.3-50.9-2.7c-23-2.1-34.7-16.1-34.7-86.7v-238.5h92.7
				c58.1,0,97.3,11.1,123.7,35.1c27.3,24.8,40.6,64.6,40.6,121.5c0,58.2-11.7,100.1-35.9,128c-21.2,24.5-52.1,38.1-94.4,41.7
				C2480.8,2472.7,2467,2473.3,2453.2,2473.3z M2369.5,2147.3v236.6c0,69.1,11.1,82.7,33,84.8c24.6,2.4,40,2.7,50.7,2.7
				c13.7,0,27.5-0.6,40.9-1.6c41.8-3.5,72.3-17,93.1-41c23.8-27.5,35.4-69,35.4-126.7c0-109.8-47-154.7-162.3-154.7H2369.5z"/>
		</g>
		<g>
			<path class="st0" d="M3395.2,2134.9l17.5,60.6c0.5,2.2,1.1,3.8,1.1,5.5c0,1.1,0,2.2-1.1,2.2c-2.2,0-4.4-2.7-7.1-6
				c-24-36-80.3-48.6-121.2-48.6c-19.1,0-32.8,1.6-32.8,22.4v206.4c0,68.3,7.1,93.9,26.2,100.5c8.2,2.7,13.6,4.9,13.6,6
				c0,1.6-2.2,2.2-6,2.2c-3.8,0-16.9-1.6-55.2-1.6c-43.1,0-57.9,1.6-63.3,1.6c-4.4,0-4.9-1.6-4.9-3.3c0-2.7,6-2.7,13.6-4.4
				c21.8-5.5,28.9-54.1,28.9-110.9v-196.6c0-20.8-13.6-22.4-32.8-22.4c-41,0-97.2,12.6-121.2,48.6c-2.7,3.3-4.9,6-7.1,6
				c-1.1,0-1.1-1.1-1.1-2.2c0-1.6,0.5-3.3,1.1-5.5l17.5-60.6H3395.2z"/>
			<path class="st0" d="M3285.5,2487c-0.9,0-2.4-0.1-4.6-0.2c-7-0.5-21.5-1.4-50.5-1.4c-31.8,0-48,0.9-56.7,1.4
				c-3.1,0.2-5.2,0.3-6.6,0.3c-4,0-5.9-1.4-5.9-4.3c0-2.8,3.7-3.4,8.7-4.3c1.7-0.3,3.6-0.6,5.7-1c18.4-4.6,28.2-42.6,28.2-109.9
				v-196.6c0-19.9-12.6-21.4-31.8-21.4c-40.7,0-96.7,12.6-120.4,48.2l-0.4,0.5c-2.8,3.3-5,5.9-7.5,5.9c-2.1,0-2.1-2.1-2.1-3.1
				c0-1.4,0.4-2.8,0.8-4.4l0.3-1.3l17.7-61.4H3396l0.2,0.7l17.8,62c0.4,1.6,0.8,2.9,0.8,4.3c0,1,0,3.1-2.1,3.1c-2.6,0-4.8-2.6-7.5-6
				l-0.3-0.4c-23.8-35.6-79.8-48.2-120.5-48.2c-19.2,0-31.8,1.5-31.8,21.4v206.4c0,67,6.7,93.1,25.6,99.6
				c13.3,4.4,14.3,5.7,14.3,6.9C3292.5,2487,3287.6,2487,3285.5,2487z M3230.3,2483.4c29.1,0,43.6,1,50.6,1.4
				c2.2,0.2,3.6,0.2,4.5,0.2c3.9,0,4.8-0.6,5-1.1c-0.5-0.5-2.8-1.9-13-5.2c-19.8-6.8-26.9-33.4-26.9-101.4v-206.4
				c0-21.6,14.6-23.4,33.7-23.4c41.2,0,97.9,12.8,122.1,49l0.2,0.3c2.3,2.8,4.4,5.3,6,5.3c0.1-0.1,0.1-0.8,0.1-1.2
				c0-1.1-0.3-2.3-0.7-3.8l-0.4-1.4l-17.3-59.9h-332.7l-17.6,61.2c-0.4,1.5-0.7,2.7-0.7,3.9c0,0.4,0,1.1,0.1,1.2
				c1.6,0,3.7-2.5,6-5.3l0.3-0.4c24.1-36.1,80.8-48.9,122-48.9c19.1,0,33.7,1.7,33.7,23.4v196.6c0,47.6-5.1,105.7-29.7,111.8
				c-2.1,0.4-4.1,0.8-5.8,1.1c-3.7,0.6-7.1,1.2-7.1,2.3c0,1,0,2.3,3.9,2.3c1.4,0,3.4-0.1,6.5-0.3
				C3182.2,2484.3,3198.5,2483.4,3230.3,2483.4z"/>
		</g>
		<g>
			<path class="st0" d="M3549.3,2187.8c0-17.5-1.1-41-20.2-48.1c-2.2-1.1-3.8-1.6-3.8-3.8c0-3.3,1.6-3.3,8.7-3.3
				c6.5,0,18.6,2.2,38.8,2.2c12.6,0,25.7-2.2,38.2-2.2c2.2,0,9.3,0,9.3,2.7c0,2.2-1.1,3.8-3.8,4.4c-18.6,5.5-20.2,26.7-20.2,48.1
				v192.2c0,49.7,0,88.5,24.6,99.4c4.4,1.6,6,3.3,6,4.9c0,1.1-2.7,1.6-6,1.6c-4.9,0-21.8-1.6-48.1-1.6c-30.6,0-45.3,1.6-50.2,1.6
				c-4.4,0-6.5-0.6-6.5-2.2c0-1.1,3.8-2.7,7.6-5.5c24-15.3,25.7-63.3,25.7-98.3V2187.8z"/>
			<path class="st0" d="M3620.8,2487c-1.5,0-4.1-0.2-7.7-0.4c-8.2-0.5-22.1-1.3-40.3-1.3c-21.8,0-35.3,0.8-43.4,1.3
				c-3.1,0.2-5.4,0.3-6.8,0.3c-2.6,0-7.5,0-7.5-3.2c0-1.2,1.4-2.1,4-3.6c1.2-0.8,2.7-1.6,4.1-2.6c22.3-14.2,25.3-57.2,25.3-97.5
				v-192.2c0-20.7-2.4-40.7-19.6-47.1l-0.8-0.4c-1.9-0.9-3.7-1.8-3.7-4.4c0-4.3,2.6-4.3,9.7-4.3c2.4,0,5.6,0.3,9.5,0.6
				c6.9,0.6,16.4,1.5,29.3,1.5c6.2,0,12.7-0.6,19-1.1c6.3-0.6,12.9-1.1,19.2-1.1c4.8,0,10.2,0.4,10.2,3.7c0,2.8-1.6,4.7-4.6,5.3
				c-17.9,5.3-19.4,26.2-19.4,47.1v192.2c0,49.1,0,87.8,24,98.5c4.5,1.7,6.6,3.5,6.6,5.8C3627.8,2486.5,3624,2487,3620.8,2487z
				 M3572.8,2483.4c18.3,0,32.2,0.8,40.4,1.3c3.6,0.2,6.2,0.4,7.6,0.4c3.3,0,4.9-0.6,5.1-0.8c0-1.1-1.9-2.5-5.4-3.8
				c-25.2-11.2-25.2-50.5-25.2-100.3v-192.2c0-21.7,1.6-43.3,20.9-49c2.1-0.4,3.1-1.5,3.1-3.4c0-0.3-0.4-1.8-8.3-1.8
				c-6.2,0-12.8,0.6-19,1.1c-6.3,0.5-12.9,1.1-19.2,1.1c-12.9,0-22.5-0.9-29.4-1.5c-3.9-0.4-7-0.6-9.3-0.6c-7.5,0-7.8,0.2-7.8,2.3
				c0,1.3,0.7,1.7,2.6,2.6l0.7,0.3c20.7,7.7,20.7,34.5,20.7,48.9v192.2c0,40.8-3.1,84.5-26.1,99.1c-1.4,1-2.9,1.9-4.2,2.7
				c-1.3,0.8-2.8,1.7-3.1,2.1c0,0.4,1,1,5.6,1c1.4,0,3.6-0.1,6.7-0.3C3537.4,2484.2,3550.9,2483.4,3572.8,2483.4z"/>
		</g>
		<g>
			<path class="st0" d="M3775.4,2208c0-38.2-0.5-56.3-22.4-66.6c-4.4-1.6-6.6-2.7-6.6-5.5c0-1.1,2.7-3.3,12-3.3h116.3
				c122.3,0,211.9,10.9,211.9,82.5c0,61.2-86.8,80.8-115.2,80.8v1.1c51.9,4.9,148.5,19.1,148.5,91.2c0,60.6-71.5,92.8-119,95
				c-26.8,1.6-53.5,2.7-75.4,2.7c-8.7,0-18.6-0.6-29.5-1.1c-10.9,0-22.9-0.6-34.9-0.6h-77c-13.6,0-24,0.6-31.1,0.6
				c-7.1,0.5-11.5,1.1-14.2,1.1c-3.3,0-3.8-1.1-3.8-2.2c0-1.6,3.8-3.3,12-6c14.2-4.9,28.4-27.3,28.4-95V2208z M3822.3,2289.9h86.8
				c53.5,0,120.7-5.5,120.7-75.9c0-44.2-37.1-67.7-121.2-67.7h-86.3V2289.9z M3822.3,2376.2c0,76.5,1.6,94.5,41,94.5
				c16.4,0,32.8,1.6,49.1,1.6c15.3,0,29.5-0.5,55.7-2.2c55.2-3.3,93.4-27.3,93.4-79.7c0-86.8-103.2-86.8-171.5-86.8h-67.7V2376.2z"
				/>
			<path class="st0" d="M3925.6,2487c-7.6,0-16.3-0.4-25.4-0.9l-4.1-0.2c0,0,0,0-0.1,0c-5.3,0-10.8-0.1-16.6-0.3
				c-6-0.1-12.1-0.3-18.3-0.3h-77c-7.9,0-14.9,0.2-20.4,0.3c-4.1,0.1-7.7,0.2-10.7,0.2c-2.7,0.2-5.1,0.4-7.1,0.6
				c-3.1,0.3-5.4,0.5-7.1,0.5c-1.2,0-4.8,0-4.8-3.2c0-2.3,3.3-3.8,12.7-6.9c12.6-4.4,27.7-24.3,27.7-94.1V2208
				c0-39.4-0.8-55.8-21.8-65.8c-4.3-1.6-7.1-2.9-7.1-6.3c0-2,3.4-4.3,13-4.3h116.3c131.4,0,212.9,14,212.9,83.4
				c0,57.8-75.8,79.1-109.9,81.5c41.9,4.2,143.2,17.5,143.2,91.6c0,61.7-71.6,93.8-120,96C3971.9,2486,3945.8,2487,3925.6,2487z
				 M3784.1,2483.4h77c6.1,0,12.3,0.1,18.3,0.3c5.8,0.1,11.3,0.3,16.6,0.3l4.2,0.2c9.1,0.4,17.7,0.9,25.3,0.9
				c20.2,0,46.2-1,75.3-2.7c49.5-2.3,118.1-36.2,118.1-94c0-76.3-111.1-86.8-147.7-90.2l-0.9-0.1v-3h1c29.3,0,114.3-19.6,114.3-79.8
				c0-67.9-80.7-81.5-210.9-81.5h-116.3c-8.5,0-10.9,1.9-11,2.4c0,1.9,1.6,2.9,5.9,4.5c22.1,10.5,23,28.3,23,67.6v174.7
				c0,71-15.8,91.4-29,95.9c-3.1,1-11.4,3.8-11.4,5.1c0,0.4,0,1.2,2.9,1.2c1.6,0,3.8-0.2,6.9-0.5c2-0.2,4.4-0.4,7.2-0.6
				c3,0,6.6-0.1,10.7-0.2C3769.2,2483.6,3776.2,2483.4,3784.1,2483.4z M3912.4,2473.3c-8.2,0-16.5-0.4-24.6-0.8
				c-8.1-0.4-16.4-0.8-24.5-0.8c-40.3,0-41.9-19.8-41.9-95.4v-73.6h68.7c68.7,0,172.4,0,172.4,87.8c0,48.4-33.5,77.1-94.3,80.7
				C3942.5,2472.7,3927.9,2473.3,3912.4,2473.3z M3823.3,2304.6v71.7c0,75.6,1.5,93.5,40,93.5c8.2,0,16.6,0.4,24.6,0.8
				c8.1,0.4,16.3,0.8,24.5,0.8c15.5,0,30-0.6,55.6-2.2c42.2-2.5,92.5-18.2,92.5-78.7c0-85.9-102.6-85.9-170.5-85.9H3823.3z
				 M3909.2,2290.9h-87.8v-145.6h87.3c82.2,0,122.2,22.5,122.2,68.7C4030.8,2290.9,3948.7,2290.9,3909.2,2290.9z M3823.3,2289h85.9
				c62.2,0,119.7-9.1,119.7-74.9c0-44.9-39.3-66.8-120.3-66.8h-85.3V2289z"/>
		</g>
		<g>
			<path class="st0" d="M4268.6,2187.8c0-17.5-1.1-41-20.2-48.1c-2.2-1.1-3.8-1.6-3.8-3.8c0-3.3,1.6-3.3,8.7-3.3
				c6.6,0,18.6,2.2,38.8,2.2c12.6,0,25.7-2.2,38.2-2.2c2.2,0,9.3,0,9.3,2.7c0,2.2-1.1,3.8-3.8,4.4c-18.6,5.5-20.2,26.7-20.2,48.1
				v192.2c0,49.7,0,88.5,24.6,99.4c4.4,1.6,6,3.3,6,4.9c0,1.1-2.7,1.6-6,1.6c-4.9,0-21.8-1.6-48.1-1.6c-30.6,0-45.3,1.6-50.2,1.6
				c-4.4,0-6.5-0.6-6.5-2.2c0-1.1,3.8-2.7,7.6-5.5c24-15.3,25.7-63.3,25.7-98.3V2187.8z"/>
			<path class="st0" d="M4340.1,2487c-1.5,0-4.1-0.2-7.7-0.4c-8.2-0.5-22.1-1.3-40.3-1.3c-21.8,0-35.3,0.8-43.4,1.3
				c-3.1,0.2-5.4,0.3-6.8,0.3c-2.6,0-7.5,0-7.5-3.2c0-1.2,1.4-2.1,4-3.6c1.2-0.8,2.7-1.6,4.1-2.6c22.3-14.2,25.3-57.2,25.3-97.5
				v-192.2c0-20.7-2.4-40.7-19.6-47.1l-0.8-0.4c-1.9-0.9-3.7-1.8-3.7-4.4c0-4.3,2.6-4.3,9.7-4.3c2.4,0,5.6,0.3,9.5,0.6
				c6.9,0.6,16.4,1.5,29.3,1.5c6.2,0,12.7-0.6,19-1.1c6.3-0.6,12.9-1.1,19.2-1.1c4.8,0,10.2,0.4,10.2,3.7c0,2.8-1.6,4.7-4.6,5.3
				c-17.9,5.3-19.4,26.2-19.4,47.1v192.2c0,49.1,0,87.8,24,98.5c4.5,1.7,6.6,3.5,6.6,5.8C4347.1,2486.5,4343.3,2487,4340.1,2487z
				 M4292,2483.4c18.3,0,32.2,0.8,40.4,1.3c3.6,0.2,6.2,0.4,7.6,0.4c3.3,0,4.9-0.6,5.1-0.8c0-1.1-1.9-2.5-5.4-3.8
				c-25.2-11.2-25.2-50.5-25.2-100.3v-192.2c0-21.7,1.6-43.3,20.9-49c2.1-0.4,3.1-1.5,3.1-3.4c0-0.3-0.4-1.8-8.3-1.8
				c-6.2,0-12.8,0.6-19,1.1c-6.3,0.5-12.9,1.1-19.2,1.1c-12.9,0-22.5-0.9-29.4-1.5c-3.9-0.4-7-0.6-9.3-0.6c-7.5,0-7.8,0.2-7.8,2.3
				c0,1.3,0.7,1.7,2.6,2.6l0.7,0.3c20.7,7.7,20.7,34.5,20.7,48.9v192.2c0,40.8-3.1,84.5-26.1,99.1c-1.4,1-2.9,1.9-4.2,2.7
				c-1.3,0.8-2.8,1.7-3.1,2.1c0,0.4,1,1,5.6,1c1.4,0,3.6-0.1,6.7-0.3C4256.6,2484.2,4270.2,2483.4,4292,2483.4z"/>
		</g>
		<g>
			<path class="st0" d="M4494.7,2208c0-49.2-7.1-58.4-20.8-65c-3.3-2.2-6-3.3-6-6c0-2.2,1.6-4.4,16.4-4.4h167.6
				c135.4,0,203.1,81.9,203.1,169.8c0,99.9-71,173.1-180.2,181.8c-13.7,1.1-27.9,1.6-42,1.6c-14.2,0-38.8-1.6-63.9-1.6h-62.2
				c-11.5,0-21.3,0.6-28.9,1.1c-7.1,0.6-12.6,1.1-15.8,1.1c-2.2,0-3.8-0.6-3.8-1.6c0-2.2,2.2-3.3,6-5.5c29-16.4,30.6-28.9,30.6-85.7
				V2208z M4541.6,2383.9c0,67.7,10.4,83.6,33.9,85.7c22.4,2.2,37.7,2.7,50.8,2.7c13.7,0,27.3-0.5,41-1.6
				c77.5-6.5,129.4-47.5,129.4-168.7c0-114.7-53-155.6-163.3-155.6h-91.7V2383.9z"/>
			<path class="st0" d="M4461.9,2487.5c-3,0-4.8-1-4.8-2.6c0-2.6,2.3-3.9,5.7-5.9l0.7-0.4c27.9-15.8,30.1-27.3,30.1-84.9V2208
				c0-50.7-7.6-58.1-20.2-64.1c-0.7-0.5-1.3-0.8-1.8-1.1c-2.6-1.6-4.8-3-4.8-5.7c0-3.3,2.9-5.4,17.4-5.4h167.6
				c63.4,0,116.3,18,153,52.2c32.9,30.6,51.1,72.7,51.1,118.6c0,49.5-17.1,93-49.4,125.8c-32.5,33-78,52.7-131.7,57
				c-13.7,1.1-27.9,1.6-42.1,1.6c-6.1,0-14.1-0.3-23.3-0.6c-12.3-0.5-26.3-1-40.6-1h-62.2c-11.9,0-22.2,0.6-28.9,1.1
				c-1.9,0.2-3.7,0.3-5.3,0.4C4467.9,2487.2,4464.3,2487.5,4461.9,2487.5z M4484.3,2133.6c-15.4,0-15.4,2.5-15.4,3.4
				c0,1.6,1.3,2.5,3.8,4.1c0.6,0.3,1.1,0.7,1.7,1.1c14.6,7,21.2,18.2,21.2,65.8v185.7c0,55.8-1.1,69.7-31.1,86.6l-0.7,0.4
				c-3.3,1.9-4.8,2.8-4.8,4.2c0,0.1,0.7,0.7,2.8,0.7c2.4,0,5.9-0.3,10.4-0.7c1.7-0.1,3.4-0.3,5.3-0.4c6.7-0.5,17-1.1,29-1.1h62.2
				c14.4,0,28.3,0.5,40.7,1c9.2,0.3,17.1,0.6,23.2,0.6c14.2,0,28.3-0.6,42-1.6c107.3-8.6,179.3-81.3,179.3-180.9
				c0-84.1-62.5-168.9-202.2-168.9H4484.3z M4626.2,2473.3c-10.7,0-26.2-0.3-50.9-2.7c-23-2.1-34.7-16.1-34.7-86.7v-238.5h92.7
				c58.1,0,97.3,11.1,123.7,35.1c27.3,24.8,40.6,64.6,40.6,121.5c0,58.2-11.7,100.1-35.9,128c-21.2,24.5-52.1,38.1-94.5,41.7
				C4653.8,2472.7,4640,2473.3,4626.2,2473.3z M4542.6,2147.3v236.6c0,69.1,11.1,82.7,33,84.8c24.6,2.4,40,2.7,50.7,2.7
				c13.7,0,27.5-0.6,40.9-1.6c41.9-3.5,72.3-17,93.1-41c23.8-27.5,35.4-69,35.4-126.7c0-109.8-47-154.7-162.3-154.7H4542.6z"/>
		</g>
		<g>
			<path class="st0" d="M5081.2,2314l-34.9,66.1c-10.9,20.2-24,48.6-24,69.9c0,9.3,5.5,18,13.7,24c6.5,4.9,15.3,6,15.3,9.3
				c0,1.6-3.3,2.2-8.2,2.2c-13.1,0-25.7-1.1-38.2-1.1c-13.1,0-26.7,1.1-39.9,1.1c-4.9,0-9.8,0-9.8-2.7c0-3.3,8.2-7.1,11.5-10.4
				c22.4-21.3,43.2-57.9,56.3-80.8l143.6-264.3c1.1-2.2,2.2-3.3,3.8-3.3h1.1c1.6,0,3.8,2.2,3.8,3.3l161.1,310.2
				c7.6,14.7,20.7,30,34.4,39.3c4.9,3.3,8.2,4.9,8.2,6s-0.5,2.7-5.5,2.7c-15.8,0-34.4-1.1-51.3-1.1c-16.9,0-39.9,1.1-55.2,1.1
				c-2.7,0-4.4-0.5-4.4-1.6c0-3.3,4.9-3.8,10.4-6.5c4.9-2.7,9.8-7.6,9.8-19.7c0-14.7-12-43.1-26.2-71.5L5221,2314H5081.2z
				 M5153.8,2182.4l-66.1,118h127.8L5153.8,2182.4z"/>
			<path class="st0" d="M5373.3,2486.4c-7.8,0-16.1-0.2-24.8-0.5c-8.8-0.3-17.9-0.6-26.5-0.6c-8.7,0-18.9,0.3-28.9,0.6
				c-9.7,0.3-18.8,0.5-26.2,0.5c-3.5,0-5.3-0.9-5.3-2.6c0-3,2.8-4.1,6.4-5.5c1.4-0.5,2.9-1.1,4.5-1.9c4-2.2,9.3-6.6,9.3-18.8
				c0-12.6-8.8-36.5-26.1-71.1l-35.2-71.5h-138.6l-34.7,65.6c-15.6,28.9-23.9,52.9-23.9,69.4c0,8.6,4.8,17.1,13.3,23.2
				c2.8,2.1,6.1,3.5,8.9,4.7c3.8,1.6,6.8,2.9,6.8,5.4c0,2.8-4.4,3.1-9.2,3.1c-6.6,0-13.2-0.3-19.6-0.6c-6.1-0.3-12.5-0.5-18.7-0.5
				c-6.5,0-13.3,0.3-19.9,0.6c-6.6,0.3-13.4,0.5-20,0.5c-5.3,0-10.8,0-10.8-3.7c0-2.6,3.4-5,7.1-7.5c1.8-1.2,3.6-2.5,4.7-3.6
				c22-20.9,42.2-56.2,55.5-79.6l0.6-1l143.6-264.3c0.9-1.9,2.2-3.8,4.7-3.8h1.1c2.1,0,4.5,2.3,4.8,4l161,310
				c7.8,15.1,20.9,30,34.1,39c1.4,0.9,2.6,1.7,3.7,2.4c3.4,2.1,4.9,3.1,4.9,4.4C5379.8,2485.2,5377.6,2486.4,5373.3,2486.4z
				 M5322,2483.4c8.6,0,17.7,0.3,26.6,0.6c8.8,0.3,17,0.5,24.8,0.5c3,0,4.5-0.6,4.5-1.8c-0.2-0.4-2.1-1.6-4-2.8
				c-1.1-0.7-2.3-1.5-3.7-2.4c-13.5-9.2-26.8-24.4-34.7-39.7l-161.2-310.6c-0.1-0.6-1.7-2.3-2.8-2.3h-1.1c-0.8,0-1.8,0.3-3,2.7
				L5023,2393c-13.4,23.5-33.7,58.9-55.9,80c-1.2,1.2-3,2.5-4.9,3.8c-2.8,1.9-6.2,4.3-6.2,5.9c0,1.8,4.9,1.8,8.9,1.8
				c6.5,0,13.3-0.3,19.9-0.6c6.6-0.3,13.4-0.5,20-0.5c6.2,0,12.6,0.3,18.8,0.5c6.3,0.3,12.9,0.6,19.5,0.6c7.1,0,7.2-1.2,7.2-1.2
				c0-1.2-2.7-2.3-5.6-3.6c-2.8-1.2-6.3-2.7-9.3-4.9c-8.9-6.5-14-15.6-14-24.8c0-17.1,8.1-40.7,24.2-70.4l35.2-66.6h141l0.3,0.5
				l35.5,72.1c17.5,34.9,26.3,59.1,26.3,72c0,13.3-5.9,18.1-10.3,20.5c-1.7,0.8-3.3,1.5-4.7,2c-3.4,1.3-5.2,2.1-5.2,3.6
				c0.1,0.2,0.8,0.7,3.4,0.7c7.4,0,16.6-0.3,26.2-0.5C5303,2483.7,5313.3,2483.4,5322,2483.4z M5217.2,2301.3h-131.1l0.8-1.4
				l67-119.5l0.8,1.6L5217.2,2301.3z M5089.4,2299.3h124.5l-60.1-114.9L5089.4,2299.3z"/>
		</g>
		<g>
			<path class="st0" d="M5507.2,2208c0-38.2-0.5-56.3-22.4-66.6c-4.4-1.6-6.6-2.7-6.6-5.5c0-1.1,2.7-3.3,12-3.3h116.3
				c122.3,0,211.9,10.9,211.9,82.5c0,61.2-86.8,80.8-115.2,80.8v1.1c51.9,4.9,148.5,19.1,148.5,91.2c0,60.6-71.5,92.8-119,95
				c-26.8,1.6-53.5,2.7-75.4,2.7c-8.7,0-18.6-0.6-29.5-1.1c-10.9,0-22.9-0.6-34.9-0.6h-77c-13.6,0-24,0.6-31.1,0.6
				c-7.1,0.5-11.5,1.1-14.2,1.1c-3.3,0-3.8-1.1-3.8-2.2c0-1.6,3.8-3.3,12-6c14.2-4.9,28.4-27.3,28.4-95V2208z M5554.2,2289.9h86.8
				c53.5,0,120.7-5.5,120.7-75.9c0-44.2-37.1-67.7-121.2-67.7h-86.3V2289.9z M5554.2,2376.2c0,76.5,1.6,94.5,41,94.5
				c16.4,0,32.8,1.6,49.1,1.6c15.3,0,29.5-0.5,55.7-2.2c55.2-3.3,93.4-27.3,93.4-79.7c0-86.8-103.2-86.8-171.5-86.8h-67.7V2376.2z"
				/>
			<path class="st0" d="M5657.4,2487c-7.6,0-16.3-0.4-25.4-0.9l-4.1-0.2c0,0,0,0-0.1,0c-5.3,0-10.8-0.1-16.6-0.3
				c-6-0.1-12.1-0.3-18.3-0.3h-77c-7.9,0-14.9,0.2-20.4,0.3c-4.1,0.1-7.7,0.2-10.7,0.2c-2.7,0.2-5.1,0.4-7.1,0.6
				c-3.1,0.3-5.4,0.5-7.1,0.5c-1.2,0-4.8,0-4.8-3.2c0-2.3,3.3-3.8,12.7-6.9c12.6-4.4,27.7-24.3,27.7-94.1V2208
				c0-39.4-0.8-55.8-21.8-65.8c-4.3-1.6-7.1-2.9-7.1-6.3c0-2,3.4-4.3,13-4.3h116.3c131.4,0,212.9,14,212.9,83.4
				c0,57.8-75.8,79.1-109.9,81.5c41.9,4.2,143.2,17.5,143.2,91.6c0,61.7-71.6,93.8-120,96C5703.7,2486,5677.6,2487,5657.4,2487z
				 M5515.9,2483.4h77c6.1,0,12.3,0.1,18.3,0.3c5.8,0.1,11.3,0.3,16.6,0.3l4.2,0.2c9.1,0.4,17.7,0.9,25.3,0.9
				c20.2,0,46.2-1,75.3-2.7c49.5-2.3,118.1-36.2,118.1-94c0-76.3-111.1-86.8-147.7-90.2l-0.9-0.1v-3h1c29.3,0,114.3-19.6,114.3-79.8
				c0-67.9-80.7-81.5-210.9-81.5h-116.3c-8.5,0-10.9,1.9-11,2.4c0,1.9,1.6,2.9,5.9,4.5c22.1,10.5,23,28.3,23,67.6v174.7
				c0,71-15.8,91.4-29,95.9c-3.1,1-11.4,3.8-11.4,5.1c0,0.4,0,1.2,2.9,1.2c1.6,0,3.8-0.2,6.9-0.5c2-0.2,4.4-0.4,7.2-0.6
				c3,0,6.6-0.1,10.7-0.2C5501,2483.6,5508,2483.4,5515.9,2483.4z M5644.3,2473.3c-8.2,0-16.5-0.4-24.6-0.8
				c-8.1-0.4-16.4-0.8-24.5-0.8c-40.3,0-41.9-19.8-41.9-95.4v-73.6h68.7c68.7,0,172.4,0,172.4,87.8c0,48.4-33.5,77.1-94.3,80.7
				C5674.3,2472.7,5659.7,2473.3,5644.3,2473.3z M5555.1,2304.6v71.7c0,75.6,1.5,93.5,40,93.5c8.2,0,16.6,0.4,24.6,0.8
				c8.1,0.4,16.3,0.8,24.5,0.8c15.5,0,30-0.6,55.6-2.2c42.2-2.5,92.5-18.2,92.5-78.7c0-85.9-102.6-85.9-170.5-85.9H5555.1z
				 M5641,2290.9h-87.8v-145.6h87.3c82.2,0,122.2,22.5,122.2,68.7C5762.6,2290.9,5680.5,2290.9,5641,2290.9z M5555.1,2289h85.9
				c62.2,0,119.7-9.1,119.7-74.9c0-44.9-39.3-66.8-120.3-66.8h-85.3V2289z"/>
		</g>
		<g>
			<path class="st0" d="M5970.9,2308.5c0-115.8,101.6-184.6,204.2-184.6c102.7,0,204.2,68.8,204.2,184.6
				c0,118-101.6,186.8-204.2,186.8C6072.4,2495.3,5970.9,2426.5,5970.9,2308.5z M6320.9,2313.4c0-102.7-42-175.8-145.8-175.8
				c-103.8,0-145.8,73.2-145.8,175.8c0,95,42,168.2,145.8,168.2C6278.8,2481.6,6320.9,2408.4,6320.9,2313.4z"/>
			<path class="st0" d="M6175.1,2496.3c-99.5,0-205.2-65.8-205.2-187.7c0-69,34.8-112.3,64-136.5c37.7-31.2,89.1-49.1,141.2-49.1
				c52.1,0,103.6,17.9,141.2,49.1c29.2,24.2,64,67.5,64,136.5C6380.3,2430.5,6274.6,2496.3,6175.1,2496.3z M6175.1,2124.9
				c-98.5,0-203.3,64.3-203.3,183.6c0,120.7,104.7,185.8,203.3,185.8c98.5,0,203.3-65.1,203.3-185.8
				C6378.4,2189.2,6273.6,2124.9,6175.1,2124.9z M6175.1,2482.6c-49.5,0-87.4-16.4-112.6-48.8c-22.4-28.7-34.2-70.4-34.2-120.3
				c0-54.2,11.5-96.9,34.2-127c24.9-33.1,62.8-49.8,112.6-49.8c49.8,0,87.7,16.7,112.6,49.8c22.7,30.1,34.2,72.8,34.2,127
				c0,50-11.8,91.6-34.2,120.3C6262.4,2466.2,6224.6,2482.6,6175.1,2482.6z M6175.1,2138.6c-49.1,0-86.5,16.5-111,49
				c-22.4,29.7-33.8,72.1-33.8,125.8c0,62.5,18.8,167.2,144.8,167.2c126,0,144.8-104.8,144.8-167.2c0-53.8-11.4-96.1-33.8-125.8
				C6261.6,2155.1,6224.2,2138.6,6175.1,2138.6z"/>
		</g>
	</g>
	<path class="st0" d="M1415.6,908.8c-25.1,8.4-17.9,39.8,11.2,30.1C1452.1,930.5,1456.9,894.9,1415.6,908.8z"/>
</g>
</svg>
